<?xml version="1.0" encoding="UTF-8"?>
<!--Generator: Apple Native CoreSVG 149-->
<!DOCTYPE svg
PUBLIC "-//W3C//DTD SVG 1.1//EN"
       "http://www.w3.org/Graphics/SVG/1.1/DTD/svg11.dtd">
<svg version="1.1" xmlns="http://www.w3.org/2000/svg" xmlns:xlink="http://www.w3.org/1999/xlink" width="3300" height="2200">
 <!--glyph: "uni1003DB.medium", point size: 100.000000, font version: "Version 16.0d18e1", template writer version: "8"-->
 <g id="Notes">
  <rect height="2200" id="artboard" style="fill:white;opacity:1" width="3300" x="0" y="0"/>
  <line id="" style="fill:none;stroke:black;opacity:1;stroke-width:0.5;" x1="263" x2="3036" y1="292" y2="292"/>
  <text style="stroke:none;fill:black;font-family:-apple-system,&quot;SF Pro Display&quot;,&quot;SF Pro Text&quot;,Helvetica,sans-serif;font-weight:bold;" transform="matrix(1 0 0 1 263 322)">Weight/Scale Variations</text>
  <text style="stroke:none;fill:black;font-family:-apple-system,&quot;SF Pro Display&quot;,&quot;SF Pro Text&quot;,Helvetica,sans-serif;text-anchor:middle;" transform="matrix(1 0 0 1 559.711 322)">Ultralight</text>
  <text style="stroke:none;fill:black;font-family:-apple-system,&quot;SF Pro Display&quot;,&quot;SF Pro Text&quot;,Helvetica,sans-serif;text-anchor:middle;" transform="matrix(1 0 0 1 856.422 322)">Thin</text>
  <text style="stroke:none;fill:black;font-family:-apple-system,&quot;SF Pro Display&quot;,&quot;SF Pro Text&quot;,Helvetica,sans-serif;text-anchor:middle;" transform="matrix(1 0 0 1 1153.13 322)">Light</text>
  <text style="stroke:none;fill:black;font-family:-apple-system,&quot;SF Pro Display&quot;,&quot;SF Pro Text&quot;,Helvetica,sans-serif;text-anchor:middle;" transform="matrix(1 0 0 1 1449.84 322)">Regular</text>
  <text style="stroke:none;fill:black;font-family:-apple-system,&quot;SF Pro Display&quot;,&quot;SF Pro Text&quot;,Helvetica,sans-serif;text-anchor:middle;" transform="matrix(1 0 0 1 1746.56 322)">Medium</text>
  <text style="stroke:none;fill:black;font-family:-apple-system,&quot;SF Pro Display&quot;,&quot;SF Pro Text&quot;,Helvetica,sans-serif;text-anchor:middle;" transform="matrix(1 0 0 1 2043.27 322)">Semibold</text>
  <text style="stroke:none;fill:black;font-family:-apple-system,&quot;SF Pro Display&quot;,&quot;SF Pro Text&quot;,Helvetica,sans-serif;text-anchor:middle;" transform="matrix(1 0 0 1 2339.98 322)">Bold</text>
  <text style="stroke:none;fill:black;font-family:-apple-system,&quot;SF Pro Display&quot;,&quot;SF Pro Text&quot;,Helvetica,sans-serif;text-anchor:middle;" transform="matrix(1 0 0 1 2636.69 322)">Heavy</text>
  <text style="stroke:none;fill:black;font-family:-apple-system,&quot;SF Pro Display&quot;,&quot;SF Pro Text&quot;,Helvetica,sans-serif;text-anchor:middle;" transform="matrix(1 0 0 1 2933.4 322)">Black</text>
  <line id="" style="fill:none;stroke:black;opacity:1;stroke-width:0.5;" x1="263" x2="3036" y1="1903" y2="1903"/>
  <g id="" transform="matrix(1 0 0 1 263 1933)">
   <path d="M9.24805 0.830078C13.5547 0.830078 17.1387-2.74414 17.1387-7.05078C17.1387-11.3574 13.5449-14.9316 9.23828-14.9316C4.94141-14.9316 1.36719-11.3574 1.36719-7.05078C1.36719-2.74414 4.95117 0.830078 9.24805 0.830078ZM9.24805-0.654297C5.70312-0.654297 2.87109-3.49609 2.87109-7.05078C2.87109-10.6055 5.69336-13.4473 9.23828-13.4473C12.793-13.4473 15.6348-10.6055 15.6445-7.05078C15.6543-3.49609 12.8027-0.654297 9.24805-0.654297ZM6.39648-6.31836L8.50586-6.31836L8.50586-4.19922C8.50586-3.75977 8.79883-3.45703 9.22852-3.45703C9.67773-3.45703 9.9707-3.75977 9.9707-4.19922L9.9707-6.31836L12.0996-6.31836C12.5391-6.31836 12.8418-6.61133 12.8418-7.04102C12.8418-7.48047 12.5391-7.7832 12.0996-7.7832L9.9707-7.7832L9.9707-9.89258C9.9707-10.3418 9.67773-10.6445 9.22852-10.6445C8.79883-10.6445 8.50586-10.3418 8.50586-9.89258L8.50586-7.7832L6.39648-7.7832C5.94727-7.7832 5.64453-7.48047 5.64453-7.04102C5.64453-6.61133 5.94727-6.31836 6.39648-6.31836Z"/>
  </g>
  <g id="" transform="matrix(1 0 0 1 281.506 1933)">
   <path d="M11.709 2.91016C17.1582 2.91016 21.6699-1.61133 21.6699-7.05078C21.6699-12.5 17.1484-17.0117 11.6992-17.0117C6.25977-17.0117 1.74805-12.5 1.74805-7.05078C1.74805-1.61133 6.26953 2.91016 11.709 2.91016ZM11.709 1.25C7.09961 1.25 3.41797-2.44141 3.41797-7.05078C3.41797-11.6602 7.08984-15.3516 11.6992-15.3516C16.3086-15.3516 20-11.6602 20.0098-7.05078C20.0195-2.44141 16.3184 1.25 11.709 1.25ZM7.98828-6.23047L10.8789-6.23047L10.8789-3.32031C10.8789-2.83203 11.2109-2.5 11.6895-2.5C12.1777-2.5 12.5195-2.83203 12.5195-3.32031L12.5195-6.23047L15.4297-6.23047C15.918-6.23047 16.25-6.5625 16.25-7.04102C16.25-7.5293 15.918-7.87109 15.4297-7.87109L12.5195-7.87109L12.5195-10.7617C12.5195-11.2695 12.1777-11.6016 11.6895-11.6016C11.2109-11.6016 10.8789-11.2598 10.8789-10.7617L10.8789-7.87109L7.98828-7.87109C7.48047-7.87109 7.14844-7.5293 7.14844-7.04102C7.14844-6.5625 7.49023-6.23047 7.98828-6.23047Z"/>
  </g>
  <g id="" transform="matrix(1 0 0 1 304.924 1933)">
   <path d="M14.9707 5.66406C21.9336 5.66406 27.6953-0.0976562 27.6953-7.05078C27.6953-14.0137 21.9238-19.7754 14.9609-19.7754C8.00781-19.7754 2.25586-14.0137 2.25586-7.05078C2.25586-0.0976562 8.01758 5.66406 14.9707 5.66406ZM14.9707 3.84766C8.93555 3.84766 4.08203-1.01562 4.08203-7.05078C4.08203-13.0957 8.92578-17.9492 14.9609-17.9492C21.0059-17.9492 25.8594-13.0957 25.8691-7.05078C25.8789-1.01562 21.0156 3.84766 14.9707 3.84766ZM10.0586-6.14258L14.0625-6.14258L14.0625-2.12891C14.0625-1.5918 14.4336-1.2207 14.9512-1.2207C15.4883-1.2207 15.8594-1.5918 15.8594-2.12891L15.8594-6.14258L19.8828-6.14258C20.4102-6.14258 20.791-6.51367 20.791-7.03125C20.791-7.56836 20.4199-7.94922 19.8828-7.94922L15.8594-7.94922L15.8594-11.9531C15.8594-12.5098 15.4883-12.8809 14.9512-12.8809C14.4336-12.8809 14.0625-12.5 14.0625-11.9531L14.0625-7.94922L10.0586-7.94922C9.50195-7.94922 9.13086-7.56836 9.13086-7.03125C9.13086-6.51367 9.51172-6.14258 10.0586-6.14258Z"/>
  </g>
  <text style="stroke:none;fill:black;font-family:-apple-system,&quot;SF Pro Display&quot;,&quot;SF Pro Text&quot;,Helvetica,sans-serif;font-weight:bold;" transform="matrix(1 0 0 1 263 1953)">Design Variations</text>
  <text style="stroke:none;fill:black;font-family:-apple-system,&quot;SF Pro Display&quot;,&quot;SF Pro Text&quot;,Helvetica,sans-serif;" transform="matrix(1 0 0 1 263 1971)">Symbols are supported in up to nine weights and three scales.</text>
  <text style="stroke:none;fill:black;font-family:-apple-system,&quot;SF Pro Display&quot;,&quot;SF Pro Text&quot;,Helvetica,sans-serif;" transform="matrix(1 0 0 1 263 1989)">For optimal layout with text and other symbols, vertically align</text>
  <text style="stroke:none;fill:black;font-family:-apple-system,&quot;SF Pro Display&quot;,&quot;SF Pro Text&quot;,Helvetica,sans-serif;" transform="matrix(1 0 0 1 263 2007)">symbols with the adjacent text.</text>
  <line id="" style="fill:none;stroke:#00AEEF;stroke-width:0.5;opacity:1.0;" x1="776" x2="776" y1="1919" y2="1933"/>
  <g id="" transform="matrix(1 0 0 1 776 1933)">
   <path d="M3.31055 0.126953C3.82812 0.126953 4.08203-0.0683594 4.26758-0.605469L5.52734-4.0625L11.2891-4.0625L12.5488-0.605469C12.7344-0.0683594 12.9883 0.126953 13.4961 0.126953C14.0137 0.126953 14.3457-0.185547 14.3457-0.673828C14.3457-0.839844 14.3164-0.986328 14.2383-1.20117L9.6582-13.3887C9.43359-13.9941 9.0332-14.2871 8.4082-14.2871C7.80273-14.2871 7.39258-13.9941 7.17773-13.3984L2.59766-1.19141C2.51953-0.976562 2.49023-0.830078 2.49023-0.664062C2.49023-0.175781 2.80273 0.126953 3.31055 0.126953ZM6.00586-5.53711L8.37891-12.1094L8.42773-12.1094L10.8008-5.53711Z"/>
  </g>
  <line id="" style="fill:none;stroke:#00AEEF;stroke-width:0.5;opacity:1.0;" x1="792.836" x2="792.836" y1="1919" y2="1933"/>
  <text style="stroke:none;fill:black;font-family:-apple-system,&quot;SF Pro Display&quot;,&quot;SF Pro Text&quot;,Helvetica,sans-serif;font-weight:bold;" transform="matrix(1 0 0 1 776 1953)">Margins</text>
  <text style="stroke:none;fill:black;font-family:-apple-system,&quot;SF Pro Display&quot;,&quot;SF Pro Text&quot;,Helvetica,sans-serif;" transform="matrix(1 0 0 1 776 1971)">Leading and trailing margins on the left and right side of each symbol</text>
  <text style="stroke:none;fill:black;font-family:-apple-system,&quot;SF Pro Display&quot;,&quot;SF Pro Text&quot;,Helvetica,sans-serif;" transform="matrix(1 0 0 1 776 1989)">can be adjusted by modifying the x-location of the margin guidelines.</text>
  <text style="stroke:none;fill:black;font-family:-apple-system,&quot;SF Pro Display&quot;,&quot;SF Pro Text&quot;,Helvetica,sans-serif;" transform="matrix(1 0 0 1 776 2007)">Modifications are automatically applied proportionally to all</text>
  <text style="stroke:none;fill:black;font-family:-apple-system,&quot;SF Pro Display&quot;,&quot;SF Pro Text&quot;,Helvetica,sans-serif;" transform="matrix(1 0 0 1 776 2025)">scales and weights.</text>
  <g id="" transform="matrix(1 0 0 1 1289 1933)">
   <path d="M2.8418 1.86523L4.54102 3.57422C5.40039 4.44336 6.38672 4.38477 7.31445 3.35938L17.4902-7.85156C17.7539-7.76367 18.0273-7.7832 18.3398-7.8418L19.4043-8.03711L20.0684-7.36328L20.0293-6.80664C19.9902-6.30859 20.1172-5.92773 20.6055-5.44922L21.3672-4.70703C21.8457-4.22852 22.4609-4.19922 22.9297-4.66797L25.8398-7.58789C26.3086-8.05664 26.2891-8.65234 25.8105-9.13086L25.0391-9.89258C24.5605-10.3711 24.1895-10.5273 23.7109-10.4883L23.1348-10.4395L22.4902-11.0742L22.7344-12.1973C22.8613-12.7637 22.7051-13.2031 22.1191-13.7891L19.9219-15.9766C16.582-19.2969 12.1484-19.2188 9.25781-16.3281C8.83789-15.918 8.80859-15.3418 9.04297-14.9512C9.27734-14.5898 9.73633-14.3555 10.3809-14.5215C11.8457-14.8633 13.3691-14.9219 14.7949-13.9844L14.209-12.5293C14.0137-12.0508 13.9844-11.6504 14.1113-11.2891L3.04688-0.898438C2.06055 0.0195312 1.98242 0.996094 2.8418 1.86523ZM10.752-15.957C13.1836-17.7344 16.4746-17.4316 18.7012-15.2051L21.1328-12.793C21.3672-12.5586 21.4062-12.373 21.3379-12.0312L21.0156-10.5469L22.5195-9.0625L23.5059-9.12109C23.7598-9.13086 23.8379-9.11133 24.0332-8.91602L24.6094-8.33984L22.168-5.89844L21.5918-6.47461C21.3965-6.66992 21.3672-6.74805 21.377-7.01172L21.4453-7.98828L19.9512-9.47266L18.4277-9.21875C18.1055-9.15039 17.959-9.17969 17.7148-9.41406L15.7129-11.416C15.459-11.6504 15.4297-11.8164 15.5859-12.1875L16.4648-14.2773C14.9023-15.7324 12.8711-16.3574 10.8398-15.7617C10.6836-15.7227 10.625-15.8496 10.752-15.957ZM5.27344 2.30469L4.10156 1.14258C3.63281 0.683594 3.74023 0.341797 4.14062-0.0195312L14.9512-10.1953L16.416-8.71094L6.42578 2.27539C6.07422 2.67578 5.74219 2.77344 5.27344 2.30469Z"/>
  </g>
  <text style="stroke:none;fill:black;font-family:-apple-system,&quot;SF Pro Display&quot;,&quot;SF Pro Text&quot;,Helvetica,sans-serif;font-weight:bold;" transform="matrix(1 0 0 1 1289 1953)">Exporting</text>
  <text style="stroke:none;fill:black;font-family:-apple-system,&quot;SF Pro Display&quot;,&quot;SF Pro Text&quot;,Helvetica,sans-serif;" transform="matrix(1 0 0 1 1289 1971)">Symbols should be outlined when exporting to ensure the</text>
  <text style="stroke:none;fill:black;font-family:-apple-system,&quot;SF Pro Display&quot;,&quot;SF Pro Text&quot;,Helvetica,sans-serif;" transform="matrix(1 0 0 1 1289 1989)">design is preserved when submitting to Xcode.</text>
  <text id="template-version" style="stroke:none;fill:black;font-family:-apple-system,&quot;SF Pro Display&quot;,&quot;SF Pro Text&quot;,Helvetica,sans-serif;text-anchor:end;" transform="matrix(1 0 0 1 3036 1933)">Template v.2.0</text>
  <text style="stroke:none;fill:black;font-family:-apple-system,&quot;SF Pro Display&quot;,&quot;SF Pro Text&quot;,Helvetica,sans-serif;text-anchor:end;" transform="matrix(1 0 0 1 3036 1951)">Requires Xcode 12 or greater</text>
  <text style="stroke:none;fill:black;font-family:-apple-system,&quot;SF Pro Display&quot;,&quot;SF Pro Text&quot;,Helvetica,sans-serif;text-anchor:end;" transform="matrix(1 0 0 1 3036 1969)">Generated from sidebar.right</text>
  <text style="stroke:none;fill:black;font-family:-apple-system,&quot;SF Pro Display&quot;,&quot;SF Pro Text&quot;,Helvetica,sans-serif;text-anchor:end;" transform="matrix(1 0 0 1 3036 1987)">Typeset at 100 points</text>
  <text style="stroke:none;fill:black;font-family:-apple-system,&quot;SF Pro Display&quot;,&quot;SF Pro Text&quot;,Helvetica,sans-serif;" transform="matrix(1 0 0 1 263 726)">Small</text>
  <text style="stroke:none;fill:black;font-family:-apple-system,&quot;SF Pro Display&quot;,&quot;SF Pro Text&quot;,Helvetica,sans-serif;" transform="matrix(1 0 0 1 263 1156)">Medium</text>
  <text style="stroke:none;fill:black;font-family:-apple-system,&quot;SF Pro Display&quot;,&quot;SF Pro Text&quot;,Helvetica,sans-serif;" transform="matrix(1 0 0 1 263 1586)">Large</text>
 </g>
 <g id="Guides">
  <g id="H-reference" style="fill:#27AAE1;stroke:none;" transform="matrix(1 0 0 1 339 696)">
   <path d="M0.976562 0L3.66211 0L12.9883-24.4629L45.752-24.4629L55.127 0L57.7637 0L30.6152-70.459L28.125-70.459ZM29.3457-67.1387L29.4434-67.1387L44.873-26.709L13.8672-26.709Z"/>
  </g>
  <line id="Baseline-S" style="fill:none;stroke:#27AAE1;opacity:1;stroke-width:0.5;" x1="263" x2="3036" y1="696" y2="696"/>
  <line id="Capline-S" style="fill:none;stroke:#27AAE1;opacity:1;stroke-width:0.5;" x1="263" x2="3036" y1="625.541" y2="625.541"/>
  <g id="H-reference" style="fill:#27AAE1;stroke:none;" transform="matrix(1 0 0 1 339 1126)">
   <path d="M0.976562 0L3.66211 0L12.9883-24.4629L45.752-24.4629L55.127 0L57.7637 0L30.6152-70.459L28.125-70.459ZM29.3457-67.1387L29.4434-67.1387L44.873-26.709L13.8672-26.709Z"/>
  </g>
  <line id="Baseline-M" style="fill:none;stroke:#27AAE1;opacity:1;stroke-width:0.5;" x1="263" x2="3036" y1="1126" y2="1126"/>
  <line id="Capline-M" style="fill:none;stroke:#27AAE1;opacity:1;stroke-width:0.5;" x1="263" x2="3036" y1="1055.54" y2="1055.54"/>
  <g id="H-reference" style="fill:#27AAE1;stroke:none;" transform="matrix(1 0 0 1 339 1556)">
   <path d="M0.976562 0L3.66211 0L12.9883-24.4629L45.752-24.4629L55.127 0L57.7637 0L30.6152-70.459L28.125-70.459ZM29.3457-67.1387L29.4434-67.1387L44.873-26.709L13.8672-26.709Z"/>
  </g>
  <line id="Baseline-L" style="fill:none;stroke:#27AAE1;opacity:1;stroke-width:0.5;" x1="263" x2="3036" y1="1556" y2="1556"/>
  <line id="Capline-L" style="fill:none;stroke:#27AAE1;opacity:1;stroke-width:0.5;" x1="263" x2="3036" y1="1485.54" y2="1485.54"/>
  <line id="left-margin" style="fill:none;stroke:#00AEEF;stroke-width:0.5;opacity:1.0;" x1="1379.82" x2="1379.82" y1="1030.79" y2="1150.12"/>
  <line id="right-margin" style="fill:none;stroke:#00AEEF;stroke-width:0.5;opacity:1.0;" x1="1519.86" x2="1519.86" y1="1030.79" y2="1150.12"/>
 </g>
 <g id="Symbols">
  <g id="Black-L" transform="matrix(1 0 0 1 2841.51 1556)">
   <path d="M39.9902 26.5137L143.799 26.5137C159.082 26.5137 167.725 17.8711 167.725 2.68555L167.725-73.0957C167.725-88.2812 159.082-96.875 143.799-96.875L39.9902-96.875C24.7559-96.875 16.0645-88.2812 16.0645-73.0957L16.0645 2.68555C16.0645 17.8711 24.7559 26.5137 39.9902 26.5137ZM42.6758 6.29883C38.4766 6.29883 36.3281 4.39453 36.3281-0.146484L36.3281-70.2148C36.3281-74.7559 38.4766-76.6602 42.6758-76.6602L91.7969-76.6602L91.7969 6.29883ZM141.064-76.6602C145.312-76.6602 147.461-74.7559 147.461-70.2148L147.461-0.146484C147.461 4.39453 145.312 6.29883 141.064 6.29883L110.205 6.29883L110.205-76.6602ZM123.34-54.6387L134.082-54.6387C137.5-54.6387 140.186-57.2754 140.186-60.3516C140.186-63.4766 137.5-66.1133 134.082-66.1133L123.34-66.1133C119.971-66.1133 117.236-63.4766 117.236-60.3516C117.236-57.2754 119.971-54.6387 123.34-54.6387ZM123.34-35.9375L134.082-35.9375C137.5-35.9375 140.186-38.5742 140.186-41.6504C140.186-44.7754 137.5-47.3633 134.082-47.3633L123.34-47.3633C119.971-47.3633 117.236-44.7754 117.236-41.6504C117.236-38.5742 119.971-35.9375 123.34-35.9375ZM123.34-17.1875L134.082-17.1875C137.5-17.1875 140.186-19.8242 140.186-22.9492C140.186-26.0742 137.5-28.6621 134.082-28.6621L123.34-28.6621C119.971-28.6621 117.236-26.0742 117.236-22.9492C117.236-19.8242 119.971-17.1875 123.34-17.1875Z"/>
  </g>
  <g id="Heavy-L" transform="matrix(1 0 0 1 2545.23 1556)">
   <path d="M38.8184 25.4883L144.092 25.4883C158.74 25.4883 166.846 17.4316 166.846 2.88086L166.846-73.2422C166.846-87.793 158.74-95.8496 144.092-95.8496L38.8184-95.8496C24.2188-95.8496 16.0645-87.793 16.0645-73.2422L16.0645 2.88086C16.0645 17.4316 24.2188 25.4883 38.8184 25.4883ZM40.918 8.00781C36.084 8.00781 33.5938 5.71289 33.5938 0.585938L33.5938-70.9473C33.5938-76.0742 36.084-78.3691 40.918-78.3691L95.7031-78.3691L95.7031 8.00781ZM141.943-78.3691C146.777-78.3691 149.316-76.0742 149.316-70.9473L149.316 0.585938C149.316 5.71289 146.777 8.00781 141.943 8.00781L111.768 8.00781L111.768-78.3691ZM124.658-56.0059L136.279-56.0059C139.258-56.0059 141.65-58.3984 141.65-61.1328C141.65-63.8672 139.258-66.2598 136.279-66.2598L124.658-66.2598C121.68-66.2598 119.238-63.8672 119.238-61.1328C119.238-58.3984 121.68-56.0059 124.658-56.0059ZM124.658-37.793L136.279-37.793C139.258-37.793 141.65-40.1855 141.65-42.9199C141.65-45.7031 139.258-48.0469 136.279-48.0469L124.658-48.0469C121.68-48.0469 119.238-45.7031 119.238-42.9199C119.238-40.1855 121.68-37.793 124.658-37.793ZM124.658-19.5801L136.279-19.5801C139.258-19.5801 141.65-21.9727 141.65-24.7559C141.65-27.4902 139.258-29.834 136.279-29.834L124.658-29.834C121.68-29.834 119.238-27.4902 119.238-24.7559C119.238-21.9727 121.68-19.5801 124.658-19.5801Z"/>
  </g>
  <g id="Bold-L" transform="matrix(1 0 0 1 2249.01 1556)">
   <path d="M37.5 24.3652L144.385 24.3652C158.35 24.3652 165.869 16.8945 165.869 3.07617L165.869-73.3887C165.869-87.207 158.35-94.7266 144.385-94.7266L37.5-94.7266C23.6328-94.7266 16.0645-87.2559 16.0645-73.3887L16.0645 3.07617C16.0645 16.8945 23.6328 24.3652 37.5 24.3652ZM38.9648 9.91211C33.4473 9.91211 30.5176 7.17773 30.5176 1.41602L30.5176-71.7285C30.5176-77.5391 33.4473-80.2734 38.9648-80.2734L100.098-80.2734L100.098 9.91211ZM142.969-80.2734C148.389-80.2734 151.416-77.5391 151.416-71.7285L151.416 1.41602C151.416 7.17773 148.389 9.91211 142.969 9.91211L113.525 9.91211L113.525-80.2734ZM126.123-57.5195L138.672-57.5195C141.211-57.5195 143.311-59.6191 143.311-61.9629C143.311-64.3555 141.211-66.4062 138.672-66.4062L126.123-66.4062C123.584-66.4062 121.484-64.3555 121.484-61.9629C121.484-59.6191 123.584-57.5195 126.123-57.5195ZM126.123-39.9414L138.672-39.9414C141.211-39.9414 143.311-41.9922 143.311-44.3848C143.311-46.7773 141.211-48.7793 138.672-48.7793L126.123-48.7793C123.584-48.7793 121.484-46.7773 121.484-44.3848C121.484-41.9922 123.584-39.9414 126.123-39.9414ZM126.123-22.3145L138.672-22.3145C141.211-22.3145 143.311-24.3652 143.311-26.709C143.311-29.1016 141.211-31.1523 138.672-31.1523L126.123-31.1523C123.584-31.1523 121.484-29.1016 121.484-26.709C121.484-24.3652 123.584-22.3145 126.123-22.3145Z"/>
  </g>
  <g id="Semibold-L" transform="matrix(1 0 0 1 1952.64 1556)">
   <path d="M36.6211 23.584L144.629 23.584C158.057 23.584 165.186 16.5039 165.186 3.17383L165.186-73.5352C165.186-86.8164 158.057-93.9453 144.629-93.9453L36.6211-93.9453C23.1934-93.9453 16.0645-86.8652 16.0645-73.5352L16.0645 3.17383C16.0645 16.5527 23.1934 23.584 36.6211 23.584ZM37.5977 11.2793C31.6406 11.2793 28.418 8.20312 28.418 1.95312L28.418-72.3145C28.418-78.5156 31.6406-81.5918 37.5977-81.5918L103.076-81.5918L103.076 11.2793ZM143.652-81.5918C149.512-81.5918 152.832-78.5156 152.832-72.3145L152.832 1.95312C152.832 8.20312 149.512 11.2793 143.652 11.2793L114.697 11.2793L114.697-81.5918ZM127.148-58.5938L140.332-58.5938C142.578-58.5938 144.434-60.498 144.434-62.5488C144.434-64.6973 142.578-66.5039 140.332-66.5039L127.148-66.5039C124.902-66.5039 123.047-64.6973 123.047-62.5488C123.047-60.498 124.902-58.5938 127.148-58.5938ZM127.148-41.3574L140.332-41.3574C142.578-41.3574 144.434-43.2129 144.434-45.3613C144.434-47.4609 142.578-49.2676 140.332-49.2676L127.148-49.2676C124.902-49.2676 123.047-47.4609 123.047-45.3613C123.047-43.2129 124.902-41.3574 127.148-41.3574ZM127.148-24.1699L140.332-24.1699C142.578-24.1699 144.434-25.9766 144.434-28.125C144.434-30.2246 142.578-32.0312 140.332-32.0312L127.148-32.0312C124.902-32.0312 123.047-30.2246 123.047-28.125C123.047-25.9766 124.902-24.1699 127.148-24.1699Z"/>
  </g>
  <g id="Medium-L" transform="matrix(1 0 0 1 1656.2 1556)">
   <path d="M35.9375 22.998L144.775 22.998C157.861 22.998 164.648 16.2109 164.648 3.27148L164.648-73.6328C164.648-86.5234 157.861-93.3105 144.775-93.3105L35.9375-93.3105C22.9004-93.3105 16.0645-86.5723 16.0645-73.6328L16.0645 3.27148C16.0645 16.2598 22.9004 22.998 35.9375 22.998ZM36.5723 12.2559C30.2246 12.2559 26.8066 8.98438 26.8066 2.39258L26.8066-72.7051C26.8066-79.2969 30.2246-82.6172 36.5723-82.6172L105.371-82.6172L105.371 12.2559ZM144.141-82.6172C150.391-82.6172 153.906-79.2969 153.906-72.7051L153.906 2.39258C153.906 8.98438 150.391 12.2559 144.141 12.2559L115.625 12.2559L115.625-82.6172ZM127.881-59.4238L141.602-59.4238C143.604-59.4238 145.312-61.1328 145.312-62.9883C145.312-64.9414 143.604-66.6016 141.602-66.6016L127.881-66.6016C125.879-66.6016 124.219-64.9414 124.219-62.9883C124.219-61.1328 125.879-59.4238 127.881-59.4238ZM127.881-42.4805L141.602-42.4805C143.604-42.4805 145.312-44.1406 145.312-46.0938C145.312-48.0469 143.604-49.6582 141.602-49.6582L127.881-49.6582C125.879-49.6582 124.219-48.0469 124.219-46.0938C124.219-44.1406 125.879-42.4805 127.881-42.4805ZM127.881-25.5859L141.602-25.5859C143.604-25.5859 145.312-27.1973 145.312-29.1504C145.312-31.1035 143.604-32.7148 141.602-32.7148L127.881-32.7148C125.879-32.7148 124.219-31.1035 124.219-29.1504C124.219-27.1973 125.879-25.5859 127.881-25.5859Z"/>
  </g>
  <g id="Regular-L" transform="matrix(1 0 0 1 1359.81 1556)">
   <path d="M35.0586 22.2168L144.971 22.2168C157.617 22.2168 164.014 15.8691 164.014 3.41797L164.014-73.7305C164.014-86.1816 157.617-92.5293 144.971-92.5293L35.0586-92.5293C22.4609-92.5293 16.0645-86.2305 16.0645-73.7305L16.0645 3.41797C16.0645 15.918 22.4609 22.2168 35.0586 22.2168ZM35.2539 13.5742C28.418 13.5742 24.707 9.96094 24.707 2.97852L24.707-73.291C24.707-80.2734 28.418-83.8867 35.2539-83.8867L108.35-83.8867L108.35 13.5742ZM144.824-83.8867C151.514-83.8867 155.322-80.2734 155.322-73.291L155.322 2.97852C155.322 9.96094 151.514 13.5742 144.824 13.5742L116.797 13.5742L116.797-83.8867ZM128.906-60.4492L143.262-60.4492C144.971-60.4492 146.436-61.9629 146.436-63.5742C146.436-65.2832 144.971-66.6992 143.262-66.6992L128.906-66.6992C127.197-66.6992 125.732-65.2832 125.732-63.5742C125.732-61.9629 127.197-60.4492 128.906-60.4492ZM128.906-43.9453L143.262-43.9453C144.971-43.9453 146.436-45.4102 146.436-47.0703C146.436-48.7305 144.971-50.1465 143.262-50.1465L128.906-50.1465C127.197-50.1465 125.732-48.7305 125.732-47.0703C125.732-45.4102 127.197-43.9453 128.906-43.9453ZM128.906-27.4414L143.262-27.4414C144.971-27.4414 146.436-28.8574 146.436-30.5176C146.436-32.1777 144.971-33.5938 143.262-33.5938L128.906-33.5938C127.197-33.5938 125.732-32.1777 125.732-30.5176C125.732-28.8574 127.197-27.4414 128.906-27.4414Z"/>
  </g>
  <g id="Light-L" transform="matrix(1 0 0 1 1063.56 1556)">
   <path d="M34.0332 21.4355L145.117 21.4355C157.031 21.4355 163.086 15.2344 163.086 3.56445L163.086-73.8281C163.086-85.5469 157.031-91.6992 145.117-91.6992L34.0332-91.6992C22.168-91.6992 16.0645-85.6445 16.0645-73.8281L16.0645 3.56445C16.0645 15.3809 22.168 21.4355 34.0332 21.4355ZM34.1797 14.7949C26.709 14.7949 22.7051 10.8398 22.7051 3.22266L22.7051-73.4863C22.7051-81.1523 26.709-85.0586 34.1797-85.0586L110.352-85.0586L110.352 14.7949ZM144.971-85.0586C152.295-85.0586 156.494-81.1523 156.494-73.4863L156.494 3.22266C156.494 10.8398 152.295 14.7949 144.971 14.7949L116.846 14.7949L116.846-85.0586ZM128.906-61.5723L144.434-61.5723C145.898-61.5723 147.07-62.793 147.07-64.1113C147.07-65.5273 145.898-66.6504 144.434-66.6504L128.906-66.6504C127.441-66.6504 126.27-65.5273 126.27-64.1113C126.27-62.793 127.441-61.5723 128.906-61.5723ZM128.906-44.7266L144.434-44.7266C145.898-44.7266 147.07-45.8984 147.07-47.2656C147.07-48.6816 145.898-49.8047 144.434-49.8047L128.906-49.8047C127.441-49.8047 126.27-48.6816 126.27-47.2656C126.27-45.8984 127.441-44.7266 128.906-44.7266ZM128.906-27.9297L144.434-27.9297C145.898-27.9297 147.07-29.1016 147.07-30.4688C147.07-31.8359 145.898-33.0078 144.434-33.0078L128.906-33.0078C127.441-33.0078 126.27-31.8359 126.27-30.4688C126.27-29.1016 127.441-27.9297 128.906-27.9297Z"/>
  </g>
  <g id="Thin-L" transform="matrix(1 0 0 1 767.433 1556)">
   <path d="M32.666 20.3613L145.312 20.3613C156.201 20.3613 161.914 14.4531 161.914 3.75977L161.914-73.9746C161.914-84.7168 156.201-90.5762 145.312-90.5762L32.666-90.5762C21.7773-90.5762 16.0645-84.8633 16.0645-73.9746L16.0645 3.75977C16.0645 14.6484 21.7773 20.3613 32.666 20.3613ZM32.8125 16.4062C24.4141 16.4062 19.9707 12.0117 19.9707 3.56445L19.9707-73.7793C19.9707-82.2754 24.4141-86.6699 32.8125-86.6699L112.988-86.6699L112.988 16.4062ZM145.166-86.6699C153.32-86.6699 158.008-82.2754 158.008-73.7793L158.008 3.56445C158.008 12.0117 153.32 16.4062 145.166 16.4062L116.895 16.4062L116.895-86.6699ZM128.906-63.0371L145.996-63.0371C147.07-63.0371 147.9-63.8672 147.9-64.8438C147.9-65.8203 147.07-66.6504 145.996-66.6504L128.906-66.6504C127.832-66.6504 127.002-65.8203 127.002-64.8438C127.002-63.8672 127.832-63.0371 128.906-63.0371ZM128.906-45.752L145.996-45.752C147.07-45.752 147.9-46.582 147.9-47.5586C147.9-48.584 147.07-49.3652 145.996-49.3652L128.906-49.3652C127.832-49.3652 127.002-48.584 127.002-47.5586C127.002-46.582 127.832-45.752 128.906-45.752ZM128.906-28.5645L145.996-28.5645C147.07-28.5645 147.9-29.3945 147.9-30.3711C147.9-31.3477 147.07-32.1777 145.996-32.1777L128.906-32.1777C127.832-32.1777 127.002-31.3477 127.002-30.3711C127.002-29.3945 127.832-28.5645 128.906-28.5645Z"/>
  </g>
  <g id="Ultralight-L" transform="matrix(1 0 0 1 471.015 1556)">
   <path d="M31.9824 19.7754L145.41 19.7754C155.811 19.7754 161.328 14.0625 161.328 3.85742L161.328-74.0723C161.328-84.2773 155.811-89.9902 145.41-89.9902L31.9824-89.9902C21.582-89.9902 16.0645-84.4727 16.0645-74.0723L16.0645 3.85742C16.0645 14.2578 21.582 19.7754 31.9824 19.7754ZM32.1289 17.2363C23.1934 17.2363 18.6035 12.6465 18.6035 3.75977L18.6035-73.9258C18.6035-82.8125 23.1934-87.4512 32.1289-87.4512L114.355-87.4512L114.355 17.2363ZM145.264-87.4512C153.857-87.4512 158.789-82.8125 158.789-73.9258L158.789 3.75977C158.789 12.6465 153.857 17.2363 145.264 17.2363L116.943 17.2363L116.943-87.4512ZM128.906-63.7695L146.826-63.7695C147.705-63.7695 148.34-64.4043 148.34-65.1855C148.34-65.9668 147.705-66.6504 146.826-66.6504L128.906-66.6504C128.027-66.6504 127.393-65.9668 127.393-65.1855C127.393-64.4043 128.027-63.7695 128.906-63.7695ZM128.906-46.2891L146.826-46.2891C147.705-46.2891 148.34-46.9238 148.34-47.7051C148.34-48.5352 147.705-49.1699 146.826-49.1699L128.906-49.1699C128.027-49.1699 127.393-48.5352 127.393-47.7051C127.393-46.9238 128.027-46.2891 128.906-46.2891ZM128.906-28.9062L146.826-28.9062C147.705-28.9062 148.34-29.541 148.34-30.3223C148.34-31.1523 147.705-31.7871 146.826-31.7871L128.906-31.7871C128.027-31.7871 127.393-31.1523 127.393-30.3223C127.393-29.541 128.027-28.9062 128.906-28.9062Z"/>
  </g>
  <g id="Black-M" transform="matrix(1 0 0 1 2861.84 1126)">
   <path d="M31.9824 13.5742L111.133 13.5742C123.389 13.5742 130.664 6.29883 130.664-5.95703L130.664-64.4043C130.664-76.6602 123.389-83.9355 111.133-83.9355L31.9824-83.9355C19.7266-83.9355 12.4512-76.6602 12.4512-64.4043L12.4512-5.95703C12.4512 6.29883 19.7266 13.5742 31.9824 13.5742ZM34.9121-4.73633C32.0801-4.73633 30.7617-5.81055 30.7617-8.88672L30.7617-61.4746C30.7617-64.5508 32.0801-65.6738 34.9121-65.6738L66.9434-65.6738L66.9434-4.73633ZM108.203-65.6738C111.035-65.6738 112.402-64.5508 112.402-61.4746L112.402-8.88672C112.402-5.81055 111.035-4.73633 108.203-4.73633L83.3496-4.73633L83.3496-65.6738ZM93.8477-48.9746L101.66-48.9746C104.639-48.9746 106.982-51.2695 106.982-53.9551C106.982-56.6406 104.639-58.9844 101.66-58.9844L93.8477-58.9844C90.8203-58.9844 88.4766-56.6406 88.4766-53.9551C88.4766-51.2695 90.8203-48.9746 93.8477-48.9746ZM93.8477-33.6426L101.66-33.6426C104.639-33.6426 106.982-35.9375 106.982-38.623C106.982-41.3086 104.639-43.6035 101.66-43.6035L93.8477-43.6035C90.8203-43.6035 88.4766-41.3086 88.4766-38.623C88.4766-35.9375 90.8203-33.6426 93.8477-33.6426ZM93.8477-18.2617L101.66-18.2617C104.639-18.2617 106.982-20.5566 106.982-23.291C106.982-25.9766 104.639-28.2715 101.66-28.2715L93.8477-28.2715C90.8203-28.2715 88.4766-25.9766 88.4766-23.291C88.4766-20.5566 90.8203-18.2617 93.8477-18.2617Z"/>
  </g>
  <g id="Heavy-M" transform="matrix(1 0 0 1 2565.5 1126)">
   <path d="M31.0059 12.6465L111.426 12.6465C123.193 12.6465 129.932 5.9082 129.932-5.81055L129.932-64.5508C129.932-76.2695 123.193-83.0566 111.426-83.0566L31.0059-83.0566C19.2383-83.0566 12.4512-76.3184 12.4512-64.5508L12.4512-5.81055C12.4512 5.9082 19.2383 12.6465 31.0059 12.6465ZM33.252-3.17383C29.9316-3.17383 28.2715-4.63867 28.2715-8.1543L28.2715-62.207C28.2715-65.7715 29.9316-67.2363 33.252-67.2363L70.7031-67.2363L70.7031-3.17383ZM109.131-67.2363C112.451-67.2363 114.111-65.7715 114.111-62.207L114.111-8.1543C114.111-4.63867 112.451-3.17383 109.131-3.17383L85.0098-3.17383L85.0098-67.2363ZM95.2637-50.1953L103.711-50.1953C106.348-50.1953 108.447-52.2461 108.447-54.6387C108.447-57.0801 106.348-59.1309 103.711-59.1309L95.2637-59.1309C92.5781-59.1309 90.5273-57.0801 90.5273-54.6387C90.5273-52.2461 92.5781-50.1953 95.2637-50.1953ZM95.2637-35.498L103.711-35.498C106.348-35.498 108.447-37.5488 108.447-39.9414C108.447-42.3828 106.348-44.3848 103.711-44.3848L95.2637-44.3848C92.5781-44.3848 90.5273-42.3828 90.5273-39.9414C90.5273-37.5488 92.5781-35.498 95.2637-35.498ZM95.2637-20.752L103.711-20.752C106.348-20.752 108.447-22.8516 108.447-25.2441C108.447-27.6367 106.348-29.6875 103.711-29.6875L95.2637-29.6875C92.5781-29.6875 90.5273-27.6367 90.5273-25.2441C90.5273-22.8516 92.5781-20.752 95.2637-20.752Z"/>
  </g>
  <g id="Bold-M" transform="matrix(1 0 0 1 2269.18 1126)">
   <path d="M29.8828 11.6699L111.719 11.6699C122.949 11.6699 129.15 5.46875 129.15-5.66406L129.15-64.6973C129.15-75.8789 122.949-82.0312 111.719-82.0312L29.8828-82.0312C18.6523-82.0312 12.4512-75.8789 12.4512-64.6973L12.4512-5.66406C12.4512 5.51758 18.6523 11.6699 29.8828 11.6699ZM31.3965-1.41602C27.5391-1.41602 25.5371-3.27148 25.5371-7.32422L25.5371-63.0371C25.5371-67.1387 27.5391-68.9453 31.3965-68.9453L74.9023-68.9453L74.9023-1.41602ZM110.205-68.9453C114.014-68.9453 116.064-67.1387 116.064-63.0371L116.064-7.32422C116.064-3.27148 114.014-1.41602 110.205-1.41602L86.9141-1.41602L86.9141-68.9453ZM96.875-51.5625L106.006-51.5625C108.252-51.5625 110.059-53.3691 110.059-55.4199C110.059-57.5195 108.252-59.3262 106.006-59.3262L96.875-59.3262C94.6289-59.3262 92.8223-57.5195 92.8223-55.4199C92.8223-53.3691 94.6289-51.5625 96.875-51.5625ZM96.875-37.5977L106.006-37.5977C108.252-37.5977 110.059-39.3555 110.059-41.4551C110.059-43.5547 108.252-45.2637 106.006-45.2637L96.875-45.2637C94.6289-45.2637 92.8223-43.5547 92.8223-41.4551C92.8223-39.3555 94.6289-37.5977 96.875-37.5977ZM96.875-23.584L106.006-23.584C108.252-23.584 110.059-25.3418 110.059-27.4414C110.059-29.541 108.252-31.2988 106.006-31.2988L96.875-31.2988C94.6289-31.2988 92.8223-29.541 92.8223-27.4414C92.8223-25.3418 94.6289-23.584 96.875-23.584Z"/>
  </g>
  <g id="Semibold-M" transform="matrix(1 0 0 1 1972.76 1126)">
   <path d="M29.1016 10.9863L111.914 10.9863C122.803 10.9863 128.564 5.17578 128.564-5.56641L128.564-64.8438C128.564-75.5859 122.803-81.3477 111.914-81.3477L29.1016-81.3477C18.2617-81.3477 12.4512-75.5859 12.4512-64.8438L12.4512-5.56641C12.4512 5.22461 18.2617 10.9863 29.1016 10.9863ZM30.127-0.195312C25.8789-0.195312 23.6328-2.34375 23.6328-6.78711L23.6328-63.623C23.6328-68.0664 25.8789-70.166 30.127-70.166L77.7832-70.166L77.7832-0.195312ZM110.889-70.166C115.088-70.166 117.383-68.0664 117.383-63.623L117.383-6.78711C117.383-2.34375 115.088-0.195312 110.889-0.195312L88.2324-0.195312L88.2324-70.166ZM97.9492-52.4902L107.568-52.4902C109.57-52.4902 111.182-54.1504 111.182-55.957C111.182-57.8125 109.57-59.4238 107.568-59.4238L97.9492-59.4238C95.9961-59.4238 94.3848-57.8125 94.3848-55.957C94.3848-54.1504 95.9961-52.4902 97.9492-52.4902ZM97.9492-39.0137L107.568-39.0137C109.57-39.0137 111.182-40.625 111.182-42.4805C111.182-44.3359 109.57-45.8984 107.568-45.8984L97.9492-45.8984C95.9961-45.8984 94.3848-44.3359 94.3848-42.4805C94.3848-40.625 95.9961-39.0137 97.9492-39.0137ZM97.9492-25.4883L107.568-25.4883C109.57-25.4883 111.182-27.0996 111.182-28.9551C111.182-30.8105 109.57-32.373 107.568-32.373L97.9492-32.373C95.9961-32.373 94.3848-30.8105 94.3848-28.9551C94.3848-27.0996 95.9961-25.4883 97.9492-25.4883Z"/>
  </g>
  <g id="Medium-M" transform="matrix(1 0 0 1 1676.24 1126)">
   <path d="M28.5156 10.4492L112.061 10.4492C122.656 10.4492 128.174 4.98047 128.174-5.46875L128.174-64.8926C128.174-75.3418 122.656-80.8105 112.061-80.8105L28.5156-80.8105C17.9688-80.8105 12.4512-75.3906 12.4512-64.8926L12.4512-5.46875C12.4512 4.98047 17.9688 10.4492 28.5156 10.4492ZM29.1504 0.732422C24.6582 0.732422 22.168-1.61133 22.168-6.34766L22.168-64.0137C22.168-68.75 24.6582-71.0938 29.1504-71.0938L79.9805-71.0938L79.9805 0.732422ZM111.426-71.0938C115.918-71.0938 118.408-68.75 118.408-64.0137L118.408-6.34766C118.408-1.61133 115.918 0.732422 111.426 0.732422L89.209 0.732422L89.209-71.0938ZM98.7793-53.2227L108.789-53.2227C110.547-53.2227 112.012-54.7363 112.012-56.3965C112.012-58.0566 110.547-59.5215 108.789-59.5215L98.7793-59.5215C97.0215-59.5215 95.5566-58.0566 95.5566-56.3965C95.5566-54.7363 97.0215-53.2227 98.7793-53.2227ZM98.7793-40.0879L108.789-40.0879C110.547-40.0879 112.012-41.5527 112.012-43.2617C112.012-44.9219 110.547-46.3867 108.789-46.3867L98.7793-46.3867C97.0215-46.3867 95.5566-44.9219 95.5566-43.2617C95.5566-41.5527 97.0215-40.0879 98.7793-40.0879ZM98.7793-27.002L108.789-27.002C110.547-27.002 112.012-28.418 112.012-30.127C112.012-31.7871 110.547-33.2031 108.789-33.2031L98.7793-33.2031C97.0215-33.2031 95.5566-31.7871 95.5566-30.127C95.5566-28.418 97.0215-27.002 98.7793-27.002Z"/>
  </g>
  <g id="Regular-M" transform="matrix(1 0 0 1 1379.82 1126)">
   <path d="M27.7832 9.76562L112.256 9.76562C122.51 9.76562 127.588 4.6875 127.588-5.37109L127.588-64.9902C127.588-75.0488 122.51-80.127 112.256-80.127L27.7832-80.127C17.5781-80.127 12.4512-75.0977 12.4512-64.9902L12.4512-5.37109C12.4512 4.73633 17.5781 9.76562 27.7832 9.76562ZM27.8809 1.9043C22.998 1.9043 20.3125-0.683594 20.3125-5.76172L20.3125-64.5996C20.3125-69.6777 22.998-72.2656 27.8809-72.2656L82.8613-72.2656L82.8613 1.9043ZM112.158-72.2656C116.992-72.2656 119.727-69.6777 119.727-64.5996L119.727-5.76172C119.727-0.683594 116.992 1.9043 112.158 1.9043L90.5273 1.9043L90.5273-72.2656ZM99.9023-54.1504L110.352-54.1504C111.816-54.1504 113.135-55.4688 113.135-56.8848C113.135-58.3496 111.816-59.6191 110.352-59.6191L99.9023-59.6191C98.3887-59.6191 97.1191-58.3496 97.1191-56.8848C97.1191-55.4688 98.3887-54.1504 99.9023-54.1504ZM99.9023-41.5039L110.352-41.5039C111.816-41.5039 113.135-42.8223 113.135-44.2871C113.135-45.752 111.816-46.9727 110.352-46.9727L99.9023-46.9727C98.3887-46.9727 97.1191-45.752 97.1191-44.2871C97.1191-42.8223 98.3887-41.5039 99.9023-41.5039ZM99.9023-28.9062L110.352-28.9062C111.816-28.9062 113.135-30.127 113.135-31.5918C113.135-33.0566 111.816-34.3262 110.352-34.3262L99.9023-34.3262C98.3887-34.3262 97.1191-33.0566 97.1191-31.5918C97.1191-30.127 98.3887-28.9062 99.9023-28.9062Z"/>
  </g>
  <g id="Light-M" transform="matrix(1 0 0 1 1083.5 1126)">
   <path d="M26.8555 9.0332L112.402 9.0332C121.973 9.0332 126.807 4.15039 126.807-5.22461L126.807-65.0879C126.807-74.5117 121.973-79.3945 112.402-79.3945L26.8555-79.3945C17.334-79.3945 12.4512-74.5605 12.4512-65.0879L12.4512-5.22461C12.4512 4.19922 17.334 9.0332 26.8555 9.0332ZM26.9531 2.97852C21.4844 2.97852 18.5059 0.0976562 18.5059-5.56641L18.5059-64.7949C18.5059-70.4102 21.4844-73.3398 26.9531-73.3398L84.6191-73.3398L84.6191 2.97852ZM112.305-73.3398C117.676-73.3398 120.752-70.4102 120.752-64.7949L120.752-5.56641C120.752 0.0976562 117.676 2.97852 112.305 2.97852L90.5273 2.97852L90.5273-73.3398ZM99.9023-55.127L111.426-55.127C112.646-55.127 113.672-56.2012 113.672-57.373C113.672-58.5938 112.646-59.6191 111.426-59.6191L99.9023-59.6191C98.6816-59.6191 97.6074-58.5938 97.6074-57.373C97.6074-56.2012 98.6816-55.127 99.9023-55.127ZM99.9023-42.2363L111.426-42.2363C112.646-42.2363 113.672-43.2617 113.672-44.4824C113.672-45.6543 112.646-46.6797 111.426-46.6797L99.9023-46.6797C98.6816-46.6797 97.6074-45.6543 97.6074-44.4824C97.6074-43.2617 98.6816-42.2363 99.9023-42.2363ZM99.9023-29.3457L111.426-29.3457C112.646-29.3457 113.672-30.3711 113.672-31.543C113.672-32.7637 112.646-33.7891 111.426-33.7891L99.9023-33.7891C98.6816-33.7891 97.6074-32.7637 97.6074-31.543C97.6074-30.3711 98.6816-29.3457 99.9023-29.3457Z"/>
  </g>
  <g id="Thin-M" transform="matrix(1 0 0 1 787.33 1126)">
   <path d="M25.6348 8.05664L112.598 8.05664C121.24 8.05664 125.732 3.4668 125.732-5.0293L125.732-65.2344C125.732-73.7305 121.24-78.3691 112.598-78.3691L25.6348-78.3691C16.9922-78.3691 12.4512-73.877 12.4512-65.2344L12.4512-5.0293C12.4512 3.56445 16.9922 8.05664 25.6348 8.05664ZM25.7324 4.44336C19.3848 4.44336 16.0645 1.12305 16.0645-5.22461L16.0645-65.0391C16.0645-71.4355 19.3848-74.7559 25.7324-74.7559L87.0117-74.7559L87.0117 4.44336ZM112.451-74.7559C118.604-74.7559 122.119-71.4355 122.119-65.0391L122.119-5.22461C122.119 1.12305 118.604 4.44336 112.451 4.44336L90.5762 4.44336L90.5762-74.7559ZM99.9023-56.4453L112.842-56.4453C113.721-56.4453 114.453-57.1777 114.453-58.0078C114.453-58.8867 113.721-59.5703 112.842-59.5703L99.9023-59.5703C98.9746-59.5703 98.291-58.8867 98.291-58.0078C98.291-57.1777 98.9746-56.4453 99.9023-56.4453ZM99.9023-43.1641L112.842-43.1641C113.721-43.1641 114.453-43.8965 114.453-44.7266C114.453-45.6055 113.721-46.2891 112.842-46.2891L99.9023-46.2891C98.9746-46.2891 98.291-45.6055 98.291-44.7266C98.291-43.8965 98.9746-43.1641 99.9023-43.1641ZM99.9023-29.9316L112.842-29.9316C113.721-29.9316 114.453-30.6152 114.453-31.4941C114.453-32.3242 113.721-33.0566 112.842-33.0566L99.9023-33.0566C98.9746-33.0566 98.291-32.3242 98.291-31.4941C98.291-30.6152 98.9746-29.9316 99.9023-29.9316Z"/>
  </g>
  <g id="Ultralight-M" transform="matrix(1 0 0 1 490.888 1126)">
   <path d="M25 7.56836L112.695 7.56836C120.85 7.56836 125.195 3.125 125.195-4.98047L125.195-65.2832C125.195-73.3887 120.85-77.832 112.695-77.832L25-77.832C16.7969-77.832 12.4512-73.4863 12.4512-65.2832L12.4512-4.98047C12.4512 3.22266 16.7969 7.56836 25 7.56836ZM25.0977 5.17578C18.3594 5.17578 14.8438 1.66016 14.8438-5.07812L14.8438-65.1855C14.8438-71.9727 18.3594-75.4395 25.0977-75.4395L88.2324-75.4395L88.2324 5.17578ZM112.549-75.4395C119.043-75.4395 122.803-71.9727 122.803-65.1855L122.803-5.07812C122.803 1.66016 119.043 5.17578 112.549 5.17578L90.625 5.17578L90.625-75.4395ZM99.9023-57.1289L113.525-57.1289C114.258-57.1289 114.795-57.666 114.795-58.3496C114.795-59.0332 114.258-59.5703 113.525-59.5703L99.9023-59.5703C99.1699-59.5703 98.6328-59.0332 98.6328-58.3496C98.6328-57.666 99.1699-57.1289 99.9023-57.1289ZM99.9023-43.6523L113.525-43.6523C114.258-43.6523 114.795-44.1895 114.795-44.873C114.795-45.5566 114.258-46.0938 113.525-46.0938L99.9023-46.0938C99.1699-46.0938 98.6328-45.5566 98.6328-44.873C98.6328-44.1895 99.1699-43.6523 99.9023-43.6523ZM99.9023-30.2246L113.525-30.2246C114.258-30.2246 114.795-30.7617 114.795-31.4453C114.795-32.1289 114.258-32.666 113.525-32.666L99.9023-32.666C99.1699-32.666 98.6328-32.1289 98.6328-31.4453C98.6328-30.7617 99.1699-30.2246 99.9023-30.2246Z"/>
  </g>
  <g id="Black-S" transform="matrix(1 0 0 1 2877.35 696)">
   <path d="M25 2.92969L87.1094 2.92969C96.6797 2.92969 102.344-2.73438 102.344-12.3047L102.344-58.1055C102.344-67.6758 96.6797-73.3398 87.1094-73.3398L25-73.3398C15.4297-73.3398 9.76562-67.6758 9.76562-58.1055L9.76562-12.3047C9.76562-2.73438 15.4297 2.92969 25 2.92969ZM27.2461-11.2305C25-11.2305 23.9258-12.1094 23.9258-14.5508L23.9258-55.8594C23.9258-58.3008 25-59.1797 27.2461-59.1797L52.7344-59.1797L52.7344-11.2305ZM84.8633-59.1797C87.1094-59.1797 88.1836-58.3008 88.1836-55.8594L88.1836-14.5508C88.1836-12.1094 87.1094-11.2305 84.8633-11.2305L65.4297-11.2305L65.4297-59.1797ZM73.6328-46.0938L79.7852-46.0938C82.1289-46.0938 83.9355-47.8516 83.9355-49.9512C83.9355-52.0508 82.1289-53.8574 79.7852-53.8574L73.6328-53.8574C71.2891-53.8574 69.4824-52.0508 69.4824-49.9512C69.4824-47.8516 71.2891-46.0938 73.6328-46.0938ZM73.6328-34.1309L79.7852-34.1309C82.1289-34.1309 83.9355-35.8887 83.9355-37.9883C83.9355-40.0879 82.1289-41.8457 79.7852-41.8457L73.6328-41.8457C71.2891-41.8457 69.4824-40.0879 69.4824-37.9883C69.4824-35.8887 71.2891-34.1309 73.6328-34.1309ZM73.6328-22.1191L79.7852-22.1191C82.1289-22.1191 83.9355-23.9258 83.9355-26.0254C83.9355-28.125 82.1289-29.8828 79.7852-29.8828L73.6328-29.8828C71.2891-29.8828 69.4824-28.125 69.4824-26.0254C69.4824-23.9258 71.2891-22.1191 73.6328-22.1191Z"/>
  </g>
  <g id="Heavy-S" transform="matrix(1 0 0 1 2580.88 696)">
   <path d="M24.3652 2.34375L87.3047 2.34375C96.582 2.34375 101.855-2.97852 101.855-12.207L101.855-58.2031C101.855-67.4316 96.582-72.7539 87.3047-72.7539L24.3652-72.7539C15.0879-72.7539 9.76562-67.4316 9.76562-58.2031L9.76562-12.207C9.76562-2.97852 15.0879 2.34375 24.3652 2.34375ZM26.0742-10.1562C23.5352-10.1562 22.2656-11.2793 22.2656-14.0137L22.2656-56.3965C22.2656-59.1309 23.5352-60.2539 26.0742-60.2539L55.4199-60.2539L55.4199-10.1562ZM85.5469-60.2539C88.0859-60.2539 89.4043-59.1309 89.4043-56.3965L89.4043-14.0137C89.4043-11.2793 88.0859-10.1562 85.5469-10.1562L66.6992-10.1562L66.6992-60.2539ZM74.707-46.9238L81.25-46.9238C83.3496-46.9238 84.9609-48.5352 84.9609-50.4395C84.9609-52.3438 83.3496-53.9551 81.25-53.9551L74.707-53.9551C72.6562-53.9551 70.9961-52.3438 70.9961-50.4395C70.9961-48.5352 72.6562-46.9238 74.707-46.9238ZM74.707-35.4492L81.25-35.4492C83.3496-35.4492 84.9609-37.0605 84.9609-38.9648C84.9609-40.8691 83.3496-42.4805 81.25-42.4805L74.707-42.4805C72.6562-42.4805 70.9961-40.8691 70.9961-38.9648C70.9961-37.0605 72.6562-35.4492 74.707-35.4492ZM74.707-23.9746L81.25-23.9746C83.3496-23.9746 84.9609-25.6348 84.9609-27.5391C84.9609-29.4434 83.3496-31.0547 81.25-31.0547L74.707-31.0547C72.6562-31.0547 70.9961-29.4434 70.9961-27.5391C70.9961-25.6348 72.6562-23.9746 74.707-23.9746Z"/>
  </g>
  <g id="Bold-S" transform="matrix(1 0 0 1 2284.41 696)">
   <path d="M23.6328 1.66016L87.5 1.66016C96.4844 1.66016 101.367-3.22266 101.367-12.1094L101.367-58.3008C101.367-67.1875 96.4844-72.0703 87.5-72.0703L23.6328-72.0703C14.6973-72.0703 9.76562-67.1875 9.76562-58.3008L9.76562-12.1094C9.76562-3.22266 14.6973 1.66016 23.6328 1.66016ZM24.8047-8.93555C21.9238-8.93555 20.3613-10.3516 20.3613-13.4277L20.3613-56.9824C20.3613-60.0586 21.9238-61.4746 24.8047-61.4746L58.3984-61.4746L58.3984-8.93555ZM86.3281-61.4746C89.209-61.4746 90.7715-60.0586 90.7715-56.9824L90.7715-13.4277C90.7715-10.3516 89.209-8.93555 86.3281-8.93555L68.1641-8.93555L68.1641-61.4746ZM75.9766-47.8516L82.8613-47.8516C84.668-47.8516 86.1328-49.3164 86.1328-50.9766C86.1328-52.6367 84.668-54.1016 82.8613-54.1016L75.9766-54.1016C74.1211-54.1016 72.6562-52.6367 72.6562-50.9766C72.6562-49.3164 74.1211-47.8516 75.9766-47.8516ZM75.9766-36.9629L82.8613-36.9629C84.668-36.9629 86.1328-38.4277 86.1328-40.0879C86.1328-41.7969 84.668-43.2129 82.8613-43.2129L75.9766-43.2129C74.1211-43.2129 72.6562-41.7969 72.6562-40.0879C72.6562-38.4277 74.1211-36.9629 75.9766-36.9629ZM75.9766-26.0742L82.8613-26.0742C84.668-26.0742 86.1328-27.5391 86.1328-29.1992C86.1328-30.9082 84.668-32.3242 82.8613-32.3242L75.9766-32.3242C74.1211-32.3242 72.6562-30.9082 72.6562-29.1992C72.6562-27.5391 74.1211-26.0742 75.9766-26.0742Z"/>
  </g>
  <g id="Semibold-S" transform="matrix(1 0 0 1 1987.9 696)">
   <path d="M23.0957 1.17188L87.6465 1.17188C96.3867 1.17188 100.977-3.36914 100.977-12.0117L100.977-58.3984C100.977-67.041 96.3867-71.582 87.6465-71.582L23.0957-71.582C14.4043-71.582 9.76562-67.041 9.76562-58.3984L9.76562-12.0117C9.76562-3.36914 14.4043 1.17188 23.0957 1.17188ZM23.877-8.10547C20.752-8.10547 19.0918-9.7168 19.0918-12.9883L19.0918-57.4219C19.0918-60.6934 20.752-62.3047 23.877-62.3047L60.4492-62.3047L60.4492-8.10547ZM86.8652-62.3047C89.9902-62.3047 91.6992-60.6934 91.6992-57.4219L91.6992-12.9883C91.6992-9.7168 89.9902-8.10547 86.8652-8.10547L69.1406-8.10547L69.1406-62.3047ZM76.8066-48.4863L83.9844-48.4863C85.5957-48.4863 86.9629-49.8047 86.9629-51.3184C86.9629-52.8809 85.5957-54.1992 83.9844-54.1992L76.8066-54.1992C75.1953-54.1992 73.8281-52.8809 73.8281-51.3184C73.8281-49.8047 75.1953-48.4863 76.8066-48.4863ZM76.8066-37.9883L83.9844-37.9883C85.5957-37.9883 86.9629-39.3555 86.9629-40.8691C86.9629-42.4316 85.5957-43.7012 83.9844-43.7012L76.8066-43.7012C75.1953-43.7012 73.8281-42.4316 73.8281-40.8691C73.8281-39.3555 75.1953-37.9883 76.8066-37.9883ZM76.8066-27.5391L83.9844-27.5391C85.5957-27.5391 86.9629-28.8574 86.9629-30.3711C86.9629-31.9336 85.5957-33.2031 83.9844-33.2031L76.8066-33.2031C75.1953-33.2031 73.8281-31.9336 73.8281-30.3711C73.8281-28.8574 75.1953-27.5391 76.8066-27.5391Z"/>
  </g>
  <g id="Medium-S" transform="matrix(1 0 0 1 1691.31 696)">
   <path d="M22.7051 0.830078L87.7441 0.830078C96.3379 0.830078 100.732-3.51562 100.732-11.9629L100.732-58.4473C100.732-66.8945 96.3379-71.2402 87.7441-71.2402L22.7051-71.2402C14.209-71.2402 9.76562-66.8945 9.76562-58.4473L9.76562-11.9629C9.76562-3.51562 14.209 0.830078 22.7051 0.830078ZM23.1934-7.4707C19.9219-7.4707 18.0664-9.22852 18.0664-12.6953L18.0664-57.7148C18.0664-61.1816 19.9219-62.9395 23.1934-62.9395L62.0117-62.9395L62.0117-7.4707ZM87.3047-62.9395C90.5762-62.9395 92.3828-61.1816 92.3828-57.7148L92.3828-12.6953C92.3828-9.22852 90.5762-7.4707 87.3047-7.4707L69.9219-7.4707L69.9219-62.9395ZM77.4414-48.9258L84.8633-48.9258C86.3281-48.9258 87.5488-50.2441 87.5488-51.6113C87.5488-53.0273 86.3281-54.248 84.8633-54.248L77.4414-54.248C75.9766-54.248 74.707-53.0273 74.707-51.6113C74.707-50.2441 75.9766-48.9258 77.4414-48.9258ZM77.4414-38.7695L84.8633-38.7695C86.3281-38.7695 87.5488-40.0391 87.5488-41.4551C87.5488-42.8711 86.3281-44.0918 84.8633-44.0918L77.4414-44.0918C75.9766-44.0918 74.707-42.8711 74.707-41.4551C74.707-40.0391 75.9766-38.7695 77.4414-38.7695ZM77.4414-28.6133L84.8633-28.6133C86.3281-28.6133 87.5488-29.834 87.5488-31.25C87.5488-32.666 86.3281-33.8867 84.8633-33.8867L77.4414-33.8867C75.9766-33.8867 74.707-32.666 74.707-31.25C74.707-29.834 75.9766-28.6133 77.4414-28.6133Z"/>
  </g>
  <g id="Regular-S" transform="matrix(1 0 0 1 1394.79 696)">
   <path d="M22.2168 0.390625L87.8906 0.390625C96.2402 0.390625 100.342-3.71094 100.342-11.9141L100.342-58.4961C100.342-66.6992 96.2402-70.8008 87.8906-70.8008L22.2168-70.8008C13.916-70.8008 9.76562-66.6992 9.76562-58.4961L9.76562-11.9141C9.76562-3.71094 13.916 0.390625 22.2168 0.390625ZM22.3145-6.68945C18.7988-6.68945 16.7969-8.54492 16.7969-12.2559L16.7969-58.1543C16.7969-61.8164 18.7988-63.7207 22.3145-63.7207L64.0625-63.7207L64.0625-6.68945ZM87.793-63.7207C91.3086-63.7207 93.3105-61.8164 93.3105-58.1543L93.3105-12.2559C93.3105-8.54492 91.3086-6.68945 87.793-6.68945L70.8984-6.68945L70.8984-63.7207ZM78.2715-49.5605L85.9375-49.5605C87.2559-49.5605 88.3789-50.7324 88.3789-52.002C88.3789-53.2715 87.2559-54.3457 85.9375-54.3457L78.2715-54.3457C77.002-54.3457 75.8789-53.2715 75.8789-52.002C75.8789-50.7324 77.002-49.5605 78.2715-49.5605ZM78.2715-39.7949L85.9375-39.7949C87.2559-39.7949 88.3789-40.918 88.3789-42.2363C88.3789-43.5059 87.2559-44.5801 85.9375-44.5801L78.2715-44.5801C77.002-44.5801 75.8789-43.5059 75.8789-42.2363C75.8789-40.918 77.002-39.7949 78.2715-39.7949ZM78.2715-30.0293L85.9375-30.0293C87.2559-30.0293 88.3789-31.1523 88.3789-32.4219C88.3789-33.6914 87.2559-34.7656 85.9375-34.7656L78.2715-34.7656C77.002-34.7656 75.8789-33.6914 75.8789-32.4219C75.8789-31.1523 77.002-30.0293 78.2715-30.0293Z"/>
  </g>
  <g id="Light-S" transform="matrix(1 0 0 1 1098.42 696)">
   <path d="M21.3867-0.292969L88.0371-0.292969C95.752-0.292969 99.6582-4.15039 99.6582-11.7676L99.6582-58.5938C99.6582-66.2109 95.752-70.1172 88.0371-70.1172L21.3867-70.1172C13.6719-70.1172 9.76562-66.2598 9.76562-58.5938L9.76562-11.7676C9.76562-4.15039 13.6719-0.292969 21.3867-0.292969ZM21.4844-5.71289C17.4316-5.71289 15.1855-7.86133 15.1855-12.0605L15.1855-58.3008C15.1855-62.5 17.4316-64.6973 21.4844-64.6973L65.625-64.6973L65.625-5.71289ZM87.9395-64.6973C91.9434-64.6973 94.2383-62.5 94.2383-58.3008L94.2383-12.0605C94.2383-7.86133 91.9434-5.71289 87.9395-5.71289L70.9473-5.71289L70.9473-64.6973ZM78.2715-50.4395L86.9141-50.4395C87.9395-50.4395 88.8672-51.416 88.8672-52.3926C88.8672-53.4668 87.9395-54.3457 86.9141-54.3457L78.2715-54.3457C77.1973-54.3457 76.3184-53.4668 76.3184-52.3926C76.3184-51.416 77.1973-50.4395 78.2715-50.4395ZM78.2715-40.4297L86.9141-40.4297C87.9395-40.4297 88.8672-41.3574 88.8672-42.3828C88.8672-43.457 87.9395-44.3359 86.9141-44.3359L78.2715-44.3359C77.1973-44.3359 76.3184-43.457 76.3184-42.3828C76.3184-41.3574 77.1973-40.4297 78.2715-40.4297ZM78.2715-30.4688L86.9141-30.4688C87.9395-30.4688 88.8672-31.3477 88.8672-32.373C88.8672-33.3984 87.9395-34.2773 86.9141-34.2773L78.2715-34.2773C77.1973-34.2773 76.3184-33.3984 76.3184-32.373C76.3184-31.3477 77.1973-30.4688 78.2715-30.4688Z"/>
  </g>
  <g id="Thin-S" transform="matrix(1 0 0 1 802.174 696)">
   <path d="M20.3125-1.12305L88.1836-1.12305C95.1172-1.12305 98.7305-4.78516 98.7305-11.6211L98.7305-58.6914C98.7305-65.5762 95.1172-69.2383 88.1836-69.2383L20.3125-69.2383C13.3789-69.2383 9.76562-65.625 9.76562-58.6914L9.76562-11.6211C9.76562-4.6875 13.3789-1.12305 20.3125-1.12305ZM20.4102-4.44336C15.625-4.44336 13.0859-6.93359 13.0859-11.8164L13.0859-58.5449C13.0859-63.3789 15.625-65.918 20.4102-65.918L67.7246-65.918L67.7246-4.44336ZM88.0859-65.918C92.7246-65.918 95.4102-63.3789 95.4102-58.5449L95.4102-11.8164C95.4102-6.93359 92.7246-4.44336 88.0859-4.44336L70.9473-4.44336L70.9473-65.918ZM78.2715-51.6113L88.1348-51.6113C88.916-51.6113 89.502-52.2461 89.502-52.9785C89.502-53.7109 88.916-54.2969 88.1348-54.2969L78.2715-54.2969C77.4902-54.2969 76.8555-53.7109 76.8555-52.9785C76.8555-52.2461 77.4902-51.6113 78.2715-51.6113ZM78.2715-41.2598L88.1348-41.2598C88.916-41.2598 89.502-41.8945 89.502-42.627C89.502-43.3594 88.916-43.9941 88.1348-43.9941L78.2715-43.9941C77.4902-43.9941 76.8555-43.3594 76.8555-42.627C76.8555-41.8945 77.4902-41.2598 78.2715-41.2598ZM78.2715-30.957L88.1348-30.957C88.916-30.957 89.502-31.5918 89.502-32.3242C89.502-33.0566 88.916-33.6426 88.1348-33.6426L78.2715-33.6426C77.4902-33.6426 76.8555-33.0566 76.8555-32.3242C76.8555-31.5918 77.4902-30.957 78.2715-30.957Z"/>
  </g>
  <g id="Ultralight-S" transform="matrix(1 0 0 1 505.707 696)">
   <path d="M19.7754-1.5625L88.2812-1.5625C94.8242-1.5625 98.2422-5.12695 98.2422-11.5234L98.2422-58.7891C98.2422-65.2344 94.8242-68.75 88.2812-68.75L19.7754-68.75C13.2324-68.75 9.76562-65.2832 9.76562-58.7891L9.76562-11.5234C9.76562-5.0293 13.2324-1.5625 19.7754-1.5625ZM19.873-3.75977C14.6484-3.75977 11.9629-6.44531 11.9629-11.6699L11.9629-58.6426C11.9629-63.8672 14.6484-66.5527 19.873-66.5527L68.7988-66.5527L68.7988-3.75977ZM88.1836-66.5527C93.1641-66.5527 96.0449-63.8672 96.0449-58.6426L96.0449-11.6699C96.0449-6.44531 93.1641-3.75977 88.1836-3.75977L70.9961-3.75977L70.9961-66.5527ZM78.2715-52.1973L88.7695-52.1973C89.4043-52.1973 89.8438-52.6855 89.8438-53.2715C89.8438-53.8086 89.4043-54.2969 88.7695-54.2969L78.2715-54.2969C77.6367-54.2969 77.1973-53.8086 77.1973-53.2715C77.1973-52.6855 77.6367-52.1973 78.2715-52.1973ZM78.2715-41.6992L88.7695-41.6992C89.4043-41.6992 89.8438-42.1875 89.8438-42.7246C89.8438-43.3105 89.4043-43.7988 88.7695-43.7988L78.2715-43.7988C77.6367-43.7988 77.1973-43.3105 77.1973-42.7246C77.1973-42.1875 77.6367-41.6992 78.2715-41.6992ZM78.2715-31.25L88.7695-31.25C89.4043-31.25 89.8438-31.6895 89.8438-32.2754C89.8438-32.8613 89.4043-33.3496 88.7695-33.3496L78.2715-33.3496C77.6367-33.3496 77.1973-32.8613 77.1973-32.2754C77.1973-31.6895 77.6367-31.25 78.2715-31.25Z"/>
  </g>
 </g>
</svg>
