<?xml version="1.0" encoding="UTF-8"?>
<!--Generator: Apple Native CoreSVG 149-->
<!DOCTYPE svg
PUBLIC "-//W3C//DTD SVG 1.1//EN"
       "http://www.w3.org/Graphics/SVG/1.1/DTD/svg11.dtd">
<svg version="1.1" xmlns="http://www.w3.org/2000/svg" xmlns:xlink="http://www.w3.org/1999/xlink" width="3300" height="2200">
 <!--glyph: "uni1006F7.medium", point size: 100.000000, font version: "Version 16.0d18e1", template writer version: "8"-->
 <g id="Notes">
  <rect height="2200" id="artboard" style="fill:white;opacity:1" width="3300" x="0" y="0"/>
  <line id="" style="fill:none;stroke:black;opacity:1;stroke-width:0.5;" x1="263" x2="3036" y1="292" y2="292"/>
  <text style="stroke:none;fill:black;font-family:-apple-system,&quot;SF Pro Display&quot;,&quot;SF Pro Text&quot;,Helvetica,sans-serif;font-weight:bold;" transform="matrix(1 0 0 1 263 322)">Weight/Scale Variations</text>
  <text style="stroke:none;fill:black;font-family:-apple-system,&quot;SF Pro Display&quot;,&quot;SF Pro Text&quot;,Helvetica,sans-serif;text-anchor:middle;" transform="matrix(1 0 0 1 559.711 322)">Ultralight</text>
  <text style="stroke:none;fill:black;font-family:-apple-system,&quot;SF Pro Display&quot;,&quot;SF Pro Text&quot;,Helvetica,sans-serif;text-anchor:middle;" transform="matrix(1 0 0 1 856.422 322)">Thin</text>
  <text style="stroke:none;fill:black;font-family:-apple-system,&quot;SF Pro Display&quot;,&quot;SF Pro Text&quot;,Helvetica,sans-serif;text-anchor:middle;" transform="matrix(1 0 0 1 1153.13 322)">Light</text>
  <text style="stroke:none;fill:black;font-family:-apple-system,&quot;SF Pro Display&quot;,&quot;SF Pro Text&quot;,Helvetica,sans-serif;text-anchor:middle;" transform="matrix(1 0 0 1 1449.84 322)">Regular</text>
  <text style="stroke:none;fill:black;font-family:-apple-system,&quot;SF Pro Display&quot;,&quot;SF Pro Text&quot;,Helvetica,sans-serif;text-anchor:middle;" transform="matrix(1 0 0 1 1746.56 322)">Medium</text>
  <text style="stroke:none;fill:black;font-family:-apple-system,&quot;SF Pro Display&quot;,&quot;SF Pro Text&quot;,Helvetica,sans-serif;text-anchor:middle;" transform="matrix(1 0 0 1 2043.27 322)">Semibold</text>
  <text style="stroke:none;fill:black;font-family:-apple-system,&quot;SF Pro Display&quot;,&quot;SF Pro Text&quot;,Helvetica,sans-serif;text-anchor:middle;" transform="matrix(1 0 0 1 2339.98 322)">Bold</text>
  <text style="stroke:none;fill:black;font-family:-apple-system,&quot;SF Pro Display&quot;,&quot;SF Pro Text&quot;,Helvetica,sans-serif;text-anchor:middle;" transform="matrix(1 0 0 1 2636.69 322)">Heavy</text>
  <text style="stroke:none;fill:black;font-family:-apple-system,&quot;SF Pro Display&quot;,&quot;SF Pro Text&quot;,Helvetica,sans-serif;text-anchor:middle;" transform="matrix(1 0 0 1 2933.4 322)">Black</text>
  <line id="" style="fill:none;stroke:black;opacity:1;stroke-width:0.5;" x1="263" x2="3036" y1="1903" y2="1903"/>
  <g id="" transform="matrix(1 0 0 1 263 1933)">
   <path d="M9.24805 0.830078C13.5547 0.830078 17.1387-2.74414 17.1387-7.05078C17.1387-11.3574 13.5449-14.9316 9.23828-14.9316C4.94141-14.9316 1.36719-11.3574 1.36719-7.05078C1.36719-2.74414 4.95117 0.830078 9.24805 0.830078ZM9.24805-0.654297C5.70312-0.654297 2.87109-3.49609 2.87109-7.05078C2.87109-10.6055 5.69336-13.4473 9.23828-13.4473C12.793-13.4473 15.6348-10.6055 15.6445-7.05078C15.6543-3.49609 12.8027-0.654297 9.24805-0.654297ZM6.39648-6.31836L8.50586-6.31836L8.50586-4.19922C8.50586-3.75977 8.79883-3.45703 9.22852-3.45703C9.67773-3.45703 9.9707-3.75977 9.9707-4.19922L9.9707-6.31836L12.0996-6.31836C12.5391-6.31836 12.8418-6.61133 12.8418-7.04102C12.8418-7.48047 12.5391-7.7832 12.0996-7.7832L9.9707-7.7832L9.9707-9.89258C9.9707-10.3418 9.67773-10.6445 9.22852-10.6445C8.79883-10.6445 8.50586-10.3418 8.50586-9.89258L8.50586-7.7832L6.39648-7.7832C5.94727-7.7832 5.64453-7.48047 5.64453-7.04102C5.64453-6.61133 5.94727-6.31836 6.39648-6.31836Z"/>
  </g>
  <g id="" transform="matrix(1 0 0 1 281.506 1933)">
   <path d="M11.709 2.91016C17.1582 2.91016 21.6699-1.61133 21.6699-7.05078C21.6699-12.5 17.1484-17.0117 11.6992-17.0117C6.25977-17.0117 1.74805-12.5 1.74805-7.05078C1.74805-1.61133 6.26953 2.91016 11.709 2.91016ZM11.709 1.25C7.09961 1.25 3.41797-2.44141 3.41797-7.05078C3.41797-11.6602 7.08984-15.3516 11.6992-15.3516C16.3086-15.3516 20-11.6602 20.0098-7.05078C20.0195-2.44141 16.3184 1.25 11.709 1.25ZM7.98828-6.23047L10.8789-6.23047L10.8789-3.32031C10.8789-2.83203 11.2109-2.5 11.6895-2.5C12.1777-2.5 12.5195-2.83203 12.5195-3.32031L12.5195-6.23047L15.4297-6.23047C15.918-6.23047 16.25-6.5625 16.25-7.04102C16.25-7.5293 15.918-7.87109 15.4297-7.87109L12.5195-7.87109L12.5195-10.7617C12.5195-11.2695 12.1777-11.6016 11.6895-11.6016C11.2109-11.6016 10.8789-11.2598 10.8789-10.7617L10.8789-7.87109L7.98828-7.87109C7.48047-7.87109 7.14844-7.5293 7.14844-7.04102C7.14844-6.5625 7.49023-6.23047 7.98828-6.23047Z"/>
  </g>
  <g id="" transform="matrix(1 0 0 1 304.924 1933)">
   <path d="M14.9707 5.66406C21.9336 5.66406 27.6953-0.0976562 27.6953-7.05078C27.6953-14.0137 21.9238-19.7754 14.9609-19.7754C8.00781-19.7754 2.25586-14.0137 2.25586-7.05078C2.25586-0.0976562 8.01758 5.66406 14.9707 5.66406ZM14.9707 3.84766C8.93555 3.84766 4.08203-1.01562 4.08203-7.05078C4.08203-13.0957 8.92578-17.9492 14.9609-17.9492C21.0059-17.9492 25.8594-13.0957 25.8691-7.05078C25.8789-1.01562 21.0156 3.84766 14.9707 3.84766ZM10.0586-6.14258L14.0625-6.14258L14.0625-2.12891C14.0625-1.5918 14.4336-1.2207 14.9512-1.2207C15.4883-1.2207 15.8594-1.5918 15.8594-2.12891L15.8594-6.14258L19.8828-6.14258C20.4102-6.14258 20.791-6.51367 20.791-7.03125C20.791-7.56836 20.4199-7.94922 19.8828-7.94922L15.8594-7.94922L15.8594-11.9531C15.8594-12.5098 15.4883-12.8809 14.9512-12.8809C14.4336-12.8809 14.0625-12.5 14.0625-11.9531L14.0625-7.94922L10.0586-7.94922C9.50195-7.94922 9.13086-7.56836 9.13086-7.03125C9.13086-6.51367 9.51172-6.14258 10.0586-6.14258Z"/>
  </g>
  <text style="stroke:none;fill:black;font-family:-apple-system,&quot;SF Pro Display&quot;,&quot;SF Pro Text&quot;,Helvetica,sans-serif;font-weight:bold;" transform="matrix(1 0 0 1 263 1953)">Design Variations</text>
  <text style="stroke:none;fill:black;font-family:-apple-system,&quot;SF Pro Display&quot;,&quot;SF Pro Text&quot;,Helvetica,sans-serif;" transform="matrix(1 0 0 1 263 1971)">Symbols are supported in up to nine weights and three scales.</text>
  <text style="stroke:none;fill:black;font-family:-apple-system,&quot;SF Pro Display&quot;,&quot;SF Pro Text&quot;,Helvetica,sans-serif;" transform="matrix(1 0 0 1 263 1989)">For optimal layout with text and other symbols, vertically align</text>
  <text style="stroke:none;fill:black;font-family:-apple-system,&quot;SF Pro Display&quot;,&quot;SF Pro Text&quot;,Helvetica,sans-serif;" transform="matrix(1 0 0 1 263 2007)">symbols with the adjacent text.</text>
  <line id="" style="fill:none;stroke:#00AEEF;stroke-width:0.5;opacity:1.0;" x1="776" x2="776" y1="1919" y2="1933"/>
  <g id="" transform="matrix(1 0 0 1 776 1933)">
   <path d="M3.31055 0.126953C3.82812 0.126953 4.08203-0.0683594 4.26758-0.605469L5.52734-4.0625L11.2891-4.0625L12.5488-0.605469C12.7344-0.0683594 12.9883 0.126953 13.4961 0.126953C14.0137 0.126953 14.3457-0.185547 14.3457-0.673828C14.3457-0.839844 14.3164-0.986328 14.2383-1.20117L9.6582-13.3887C9.43359-13.9941 9.0332-14.2871 8.4082-14.2871C7.80273-14.2871 7.39258-13.9941 7.17773-13.3984L2.59766-1.19141C2.51953-0.976562 2.49023-0.830078 2.49023-0.664062C2.49023-0.175781 2.80273 0.126953 3.31055 0.126953ZM6.00586-5.53711L8.37891-12.1094L8.42773-12.1094L10.8008-5.53711Z"/>
  </g>
  <line id="" style="fill:none;stroke:#00AEEF;stroke-width:0.5;opacity:1.0;" x1="792.836" x2="792.836" y1="1919" y2="1933"/>
  <text style="stroke:none;fill:black;font-family:-apple-system,&quot;SF Pro Display&quot;,&quot;SF Pro Text&quot;,Helvetica,sans-serif;font-weight:bold;" transform="matrix(1 0 0 1 776 1953)">Margins</text>
  <text style="stroke:none;fill:black;font-family:-apple-system,&quot;SF Pro Display&quot;,&quot;SF Pro Text&quot;,Helvetica,sans-serif;" transform="matrix(1 0 0 1 776 1971)">Leading and trailing margins on the left and right side of each symbol</text>
  <text style="stroke:none;fill:black;font-family:-apple-system,&quot;SF Pro Display&quot;,&quot;SF Pro Text&quot;,Helvetica,sans-serif;" transform="matrix(1 0 0 1 776 1989)">can be adjusted by modifying the x-location of the margin guidelines.</text>
  <text style="stroke:none;fill:black;font-family:-apple-system,&quot;SF Pro Display&quot;,&quot;SF Pro Text&quot;,Helvetica,sans-serif;" transform="matrix(1 0 0 1 776 2007)">Modifications are automatically applied proportionally to all</text>
  <text style="stroke:none;fill:black;font-family:-apple-system,&quot;SF Pro Display&quot;,&quot;SF Pro Text&quot;,Helvetica,sans-serif;" transform="matrix(1 0 0 1 776 2025)">scales and weights.</text>
  <g id="" transform="matrix(1 0 0 1 1289 1933)">
   <path d="M2.8418 1.86523L4.54102 3.57422C5.40039 4.44336 6.38672 4.38477 7.31445 3.35938L17.4902-7.85156C17.7539-7.76367 18.0273-7.7832 18.3398-7.8418L19.4043-8.03711L20.0684-7.36328L20.0293-6.80664C19.9902-6.30859 20.1172-5.92773 20.6055-5.44922L21.3672-4.70703C21.8457-4.22852 22.4609-4.19922 22.9297-4.66797L25.8398-7.58789C26.3086-8.05664 26.2891-8.65234 25.8105-9.13086L25.0391-9.89258C24.5605-10.3711 24.1895-10.5273 23.7109-10.4883L23.1348-10.4395L22.4902-11.0742L22.7344-12.1973C22.8613-12.7637 22.7051-13.2031 22.1191-13.7891L19.9219-15.9766C16.582-19.2969 12.1484-19.2188 9.25781-16.3281C8.83789-15.918 8.80859-15.3418 9.04297-14.9512C9.27734-14.5898 9.73633-14.3555 10.3809-14.5215C11.8457-14.8633 13.3691-14.9219 14.7949-13.9844L14.209-12.5293C14.0137-12.0508 13.9844-11.6504 14.1113-11.2891L3.04688-0.898438C2.06055 0.0195312 1.98242 0.996094 2.8418 1.86523ZM10.752-15.957C13.1836-17.7344 16.4746-17.4316 18.7012-15.2051L21.1328-12.793C21.3672-12.5586 21.4062-12.373 21.3379-12.0312L21.0156-10.5469L22.5195-9.0625L23.5059-9.12109C23.7598-9.13086 23.8379-9.11133 24.0332-8.91602L24.6094-8.33984L22.168-5.89844L21.5918-6.47461C21.3965-6.66992 21.3672-6.74805 21.377-7.01172L21.4453-7.98828L19.9512-9.47266L18.4277-9.21875C18.1055-9.15039 17.959-9.17969 17.7148-9.41406L15.7129-11.416C15.459-11.6504 15.4297-11.8164 15.5859-12.1875L16.4648-14.2773C14.9023-15.7324 12.8711-16.3574 10.8398-15.7617C10.6836-15.7227 10.625-15.8496 10.752-15.957ZM5.27344 2.30469L4.10156 1.14258C3.63281 0.683594 3.74023 0.341797 4.14062-0.0195312L14.9512-10.1953L16.416-8.71094L6.42578 2.27539C6.07422 2.67578 5.74219 2.77344 5.27344 2.30469Z"/>
  </g>
  <text style="stroke:none;fill:black;font-family:-apple-system,&quot;SF Pro Display&quot;,&quot;SF Pro Text&quot;,Helvetica,sans-serif;font-weight:bold;" transform="matrix(1 0 0 1 1289 1953)">Exporting</text>
  <text style="stroke:none;fill:black;font-family:-apple-system,&quot;SF Pro Display&quot;,&quot;SF Pro Text&quot;,Helvetica,sans-serif;" transform="matrix(1 0 0 1 1289 1971)">Symbols should be outlined when exporting to ensure the</text>
  <text style="stroke:none;fill:black;font-family:-apple-system,&quot;SF Pro Display&quot;,&quot;SF Pro Text&quot;,Helvetica,sans-serif;" transform="matrix(1 0 0 1 1289 1989)">design is preserved when submitting to Xcode.</text>
  <text id="template-version" style="stroke:none;fill:black;font-family:-apple-system,&quot;SF Pro Display&quot;,&quot;SF Pro Text&quot;,Helvetica,sans-serif;text-anchor:end;" transform="matrix(1 0 0 1 3036 1933)">Template v.2.0</text>
  <text style="stroke:none;fill:black;font-family:-apple-system,&quot;SF Pro Display&quot;,&quot;SF Pro Text&quot;,Helvetica,sans-serif;text-anchor:end;" transform="matrix(1 0 0 1 3036 1951)">Requires Xcode 12 or greater</text>
  <text style="stroke:none;fill:black;font-family:-apple-system,&quot;SF Pro Display&quot;,&quot;SF Pro Text&quot;,Helvetica,sans-serif;text-anchor:end;" transform="matrix(1 0 0 1 3036 1969)">Generated from stop.fill</text>
  <text style="stroke:none;fill:black;font-family:-apple-system,&quot;SF Pro Display&quot;,&quot;SF Pro Text&quot;,Helvetica,sans-serif;text-anchor:end;" transform="matrix(1 0 0 1 3036 1987)">Typeset at 100 points</text>
  <text style="stroke:none;fill:black;font-family:-apple-system,&quot;SF Pro Display&quot;,&quot;SF Pro Text&quot;,Helvetica,sans-serif;" transform="matrix(1 0 0 1 263 726)">Small</text>
  <text style="stroke:none;fill:black;font-family:-apple-system,&quot;SF Pro Display&quot;,&quot;SF Pro Text&quot;,Helvetica,sans-serif;" transform="matrix(1 0 0 1 263 1156)">Medium</text>
  <text style="stroke:none;fill:black;font-family:-apple-system,&quot;SF Pro Display&quot;,&quot;SF Pro Text&quot;,Helvetica,sans-serif;" transform="matrix(1 0 0 1 263 1586)">Large</text>
 </g>
 <g id="Guides">
  <g id="H-reference" style="fill:#27AAE1;stroke:none;" transform="matrix(1 0 0 1 339 696)">
   <path d="M0.976562 0L3.66211 0L12.9883-24.4629L45.752-24.4629L55.127 0L57.7637 0L30.6152-70.459L28.125-70.459ZM29.3457-67.1387L29.4434-67.1387L44.873-26.709L13.8672-26.709Z"/>
  </g>
  <line id="Baseline-S" style="fill:none;stroke:#27AAE1;opacity:1;stroke-width:0.5;" x1="263" x2="3036" y1="696" y2="696"/>
  <line id="Capline-S" style="fill:none;stroke:#27AAE1;opacity:1;stroke-width:0.5;" x1="263" x2="3036" y1="625.541" y2="625.541"/>
  <g id="H-reference" style="fill:#27AAE1;stroke:none;" transform="matrix(1 0 0 1 339 1126)">
   <path d="M0.976562 0L3.66211 0L12.9883-24.4629L45.752-24.4629L55.127 0L57.7637 0L30.6152-70.459L28.125-70.459ZM29.3457-67.1387L29.4434-67.1387L44.873-26.709L13.8672-26.709Z"/>
  </g>
  <line id="Baseline-M" style="fill:none;stroke:#27AAE1;opacity:1;stroke-width:0.5;" x1="263" x2="3036" y1="1126" y2="1126"/>
  <line id="Capline-M" style="fill:none;stroke:#27AAE1;opacity:1;stroke-width:0.5;" x1="263" x2="3036" y1="1055.54" y2="1055.54"/>
  <g id="H-reference" style="fill:#27AAE1;stroke:none;" transform="matrix(1 0 0 1 339 1556)">
   <path d="M0.976562 0L3.66211 0L12.9883-24.4629L45.752-24.4629L55.127 0L57.7637 0L30.6152-70.459L28.125-70.459ZM29.3457-67.1387L29.4434-67.1387L44.873-26.709L13.8672-26.709Z"/>
  </g>
  <line id="Baseline-L" style="fill:none;stroke:#27AAE1;opacity:1;stroke-width:0.5;" x1="263" x2="3036" y1="1556" y2="1556"/>
  <line id="Capline-L" style="fill:none;stroke:#27AAE1;opacity:1;stroke-width:0.5;" x1="263" x2="3036" y1="1485.54" y2="1485.54"/>
  <line id="left-margin" style="fill:none;stroke:#00AEEF;stroke-width:0.5;opacity:1.0;" x1="1397.62" x2="1397.62" y1="1030.79" y2="1150.12"/>
  <line id="right-margin" style="fill:none;stroke:#00AEEF;stroke-width:0.5;opacity:1.0;" x1="1502.07" x2="1502.07" y1="1030.79" y2="1150.12"/>
 </g>
 <g id="Symbols">
  <g id="Black-L" transform="matrix(1 0 0 1 2861.35 1556)">
   <path d="M16.0645 4.00391C16.0645 14.1602 23.1445 20.752 34.082 20.752L110.01 20.752C120.947 20.752 128.027 14.1602 128.027 4.00391L128.027-74.5117C128.027-84.668 120.947-91.2109 110.01-91.2109L34.082-91.2109C23.1445-91.2109 16.0645-84.668 16.0645-74.5117Z"/>
  </g>
  <g id="Heavy-L" transform="matrix(1 0 0 1 2565.91 1556)">
   <path d="M16.0645 3.56445C16.0645 13.2812 22.6562 19.4824 33.0078 19.4824L108.545 19.4824C118.896 19.4824 125.488 13.2812 125.488 3.56445L125.488-74.0723C125.488-83.7891 118.896-89.9414 108.545-89.9414L33.0078-89.9414C22.6562-89.9414 16.0645-83.7891 16.0645-74.0723Z"/>
  </g>
  <g id="Bold-L" transform="matrix(1 0 0 1 2270.62 1556)">
   <path d="M16.0645 3.07617C16.0645 12.3047 22.1191 18.0176 31.7871 18.0176L106.934 18.0176C116.602 18.0176 122.656 12.3047 122.656 3.07617L122.656-73.584C122.656-82.8125 116.602-88.5254 106.934-88.5254L31.7871-88.5254C22.1191-88.5254 16.0645-82.8125 16.0645-73.584Z"/>
  </g>
  <g id="Semibold-L" transform="matrix(1 0 0 1 1974.88 1556)">
   <path d="M16.0645 2.73438C16.0645 11.6211 21.7285 17.041 30.9082 17.041L105.811 17.041C115.039 17.041 120.703 11.6211 120.703 2.73438L120.703-73.2422C120.703-82.1289 115.039-87.5488 105.811-87.5488L30.9082-87.5488C21.7285-87.5488 16.0645-82.1289 16.0645-73.2422Z"/>
  </g>
  <g id="Medium-L" transform="matrix(1 0 0 1 1678.93 1556)">
   <path d="M16.0645 2.49023C16.0645 11.1328 21.4355 16.3086 30.2734 16.3086L104.98 16.3086C113.818 16.3086 119.189 11.1328 119.189 2.49023L119.189-72.998C119.189-81.6406 113.818-86.8164 104.98-86.8164L30.2734-86.8164C21.4355-86.8164 16.0645-81.6406 16.0645-72.998Z"/>
  </g>
  <g id="Regular-L" transform="matrix(1 0 0 1 1383.19 1556)">
   <path d="M16.0645 2.14844C16.0645 10.4492 21.0449 15.332 29.4434 15.332L103.857 15.332C112.305 15.332 117.236 10.4492 117.236 2.14844L117.236-72.7051C117.236-81.0059 112.305-85.8887 103.857-85.8887L29.4434-85.8887C21.0449-85.8887 16.0645-81.0059 16.0645-72.7051Z"/>
  </g>
  <g id="Light-L" transform="matrix(1 0 0 1 1087.46 1556)">
   <path d="M16.0645 2.09961C16.0645 9.81445 20.6543 14.3066 28.418 14.3066L102.93 14.3066C110.693 14.3066 115.283 9.81445 115.283 2.09961L115.283-72.6562C115.283-80.3223 110.693-84.8633 102.93-84.8633L28.418-84.8633C20.6543-84.8633 16.0645-80.3223 16.0645-72.6562Z"/>
  </g>
  <g id="Thin-L" transform="matrix(1 0 0 1 792.067 1556)">
   <path d="M16.0645 2.05078C16.0645 8.93555 20.1172 12.9883 27.0508 12.9883L101.66 12.9883C108.545 12.9883 112.646 8.93555 112.646 2.05078L112.646-72.6074C112.646-79.4922 108.545-83.5449 101.66-83.5449L27.0508-83.5449C20.1172-83.5449 16.0645-79.4922 16.0645-72.6074Z"/>
  </g>
  <g id="Ultralight-L" transform="matrix(1 0 0 1 496.039 1556)">
   <path d="M16.0645 2.05078C16.0645 8.49609 19.873 12.3535 26.3184 12.3535L100.977 12.3535C107.471 12.3535 111.279 8.49609 111.279 2.05078L111.279-72.5586C111.279-79.0527 107.471-82.8613 100.977-82.8613L26.3184-82.8613C19.873-82.8613 16.0645-79.0527 16.0645-72.5586Z"/>
  </g>
  <g id="Black-M" transform="matrix(1 0 0 1 2876.39 1126)">
   <path d="M12.4512-4.24805C12.4512 3.90625 18.4082 9.32617 27.3438 9.32617L86.6699 9.32617C95.6055 9.32617 101.562 3.90625 101.562-4.24805L101.562-66.2109C101.562-74.3652 95.6055-79.7852 86.6699-79.7852L27.3438-79.7852C18.4082-79.7852 12.4512-74.3652 12.4512-66.2109Z"/>
  </g>
  <g id="Heavy-M" transform="matrix(1 0 0 1 2580.81 1126)">
   <path d="M12.4512-4.6875C12.4512 3.07617 17.9688 8.20312 26.416 8.20312L85.3516 8.20312C93.7988 8.20312 99.3164 3.07617 99.3164-4.6875L99.3164-65.7715C99.3164-73.584 93.7988-78.6621 85.3516-78.6621L26.416-78.6621C17.9688-78.6621 12.4512-73.584 12.4512-65.7715Z"/>
  </g>
  <g id="Bold-M" transform="matrix(1 0 0 1 2285.36 1126)">
   <path d="M12.4512-5.22461C12.4512 2.19727 17.4805 6.93359 25.3906 6.93359L83.8379 6.93359C91.7969 6.93359 96.7773 2.19727 96.7773-5.22461L96.7773-65.2344C96.7773-72.7051 91.7969-77.4414 83.8379-77.4414L25.3906-77.4414C17.4805-77.4414 12.4512-72.7051 12.4512-65.2344Z"/>
  </g>
  <g id="Semibold-M" transform="matrix(1 0 0 1 1989.51 1126)">
   <path d="M12.4512-5.61523C12.4512 1.61133 17.1387 6.05469 24.6582 6.05469L82.8613 6.05469C90.3809 6.05469 95.0684 1.61133 95.0684-5.61523L95.0684-64.8926C95.0684-72.1191 90.3809-76.5625 82.8613-76.5625L24.6582-76.5625C17.1387-76.5625 12.4512-72.1191 12.4512-64.8926Z"/>
  </g>
  <g id="Medium-M" transform="matrix(1 0 0 1 1693.45 1126)">
   <path d="M12.4512-5.85938C12.4512 1.12305 16.8457 5.37109 24.1211 5.37109L82.0801 5.37109C89.3066 5.37109 93.75 1.12305 93.75-5.85938L93.75-64.6484C93.75-71.6309 89.3066-75.8789 82.0801-75.8789L24.1211-75.8789C16.8457-75.8789 12.4512-71.6309 12.4512-64.6484Z"/>
  </g>
  <g id="Regular-M" transform="matrix(1 0 0 1 1397.62 1126)">
   <path d="M12.4512-6.25C12.4512 0.537109 16.5527 4.54102 23.3887 4.54102L81.0547 4.54102C87.9395 4.54102 91.9922 0.537109 91.9922-6.25L91.9922-64.2578C91.9922-71.0449 87.9395-75.0488 81.0547-75.0488L23.3887-75.0488C16.5527-75.0488 12.4512-71.0449 12.4512-64.2578Z"/>
  </g>
  <g id="Light-M" transform="matrix(1 0 0 1 1101.79 1126)">
   <path d="M12.4512-6.29883C12.4512-0.0488281 16.1621 3.61328 22.4609 3.61328L80.1758 3.61328C86.4746 3.61328 90.2344-0.0488281 90.2344-6.29883L90.2344-64.2578C90.2344-70.459 86.4746-74.1699 80.1758-74.1699L22.4609-74.1699C16.1621-74.1699 12.4512-70.459 12.4512-64.2578Z"/>
  </g>
  <g id="Thin-M" transform="matrix(1 0 0 1 806.276 1126)">
   <path d="M12.4512-6.29883C12.4512-0.830078 15.7227 2.44141 21.2402 2.44141L79.0527 2.44141C84.5703 2.44141 87.8418-0.830078 87.8418-6.29883L87.8418-64.209C87.8418-69.7266 84.5703-72.9492 79.0527-72.9492L21.2402-72.9492C15.7227-72.9492 12.4512-69.7266 12.4512-64.209Z"/>
  </g>
  <g id="Ultralight-M" transform="matrix(1 0 0 1 510.175 1126)">
   <path d="M12.4512-6.34766C12.4512-1.2207 15.4785 1.85547 20.6055 1.85547L78.4668 1.85547C83.5938 1.85547 86.6211-1.2207 86.6211-6.34766L86.6211-64.1602C86.6211-69.3359 83.5938-72.3633 78.4668-72.3633L20.6055-72.3633C15.4785-72.3633 12.4512-69.3359 12.4512-64.1602Z"/>
  </g>
  <g id="Black-S" transform="matrix(1 0 0 1 2888.8 696)">
   <path d="M9.76562-10.9863C9.76562-4.63867 14.4043-0.390625 21.3867-0.390625L67.8223-0.390625C74.8047-0.390625 79.4434-4.63867 79.4434-10.9863L79.4434-59.4727C79.4434-65.8203 74.8047-70.0684 67.8223-70.0684L21.3867-70.0684C14.4043-70.0684 9.76562-65.8203 9.76562-59.4727Z"/>
  </g>
  <g id="Heavy-S" transform="matrix(1 0 0 1 2592.84 696)">
   <path d="M9.76562-11.3281C9.76562-5.17578 14.1113-1.17188 20.8008-1.17188L66.8945-1.17188C73.584-1.17188 77.9297-5.17578 77.9297-11.3281L77.9297-59.1309C77.9297-65.2832 73.584-69.2871 66.8945-69.2871L20.8008-69.2871C14.1113-69.2871 9.76562-65.2832 9.76562-59.1309Z"/>
  </g>
  <g id="Bold-S" transform="matrix(1 0 0 1 2296.98 696)">
   <path d="M9.76562-11.7676C9.76562-5.76172 13.7695-2.00195 20.1172-2.00195L65.8691-2.00195C72.2168-2.00195 76.2207-5.76172 76.2207-11.7676L76.2207-58.7402C76.2207-64.6973 72.2168-68.457 65.8691-68.457L20.1172-68.457C13.7695-68.457 9.76562-64.6973 9.76562-58.7402Z"/>
  </g>
  <g id="Semibold-S" transform="matrix(1 0 0 1 2000.86 696)">
   <path d="M9.76562-12.0117C9.76562-6.20117 13.5254-2.63672 19.6289-2.63672L65.1855-2.63672C71.2402-2.63672 75.0488-6.20117 75.0488-12.0117L75.0488-58.4473C75.0488-64.3066 71.2402-67.8711 65.1855-67.8711L19.6289-67.8711C13.5254-67.8711 9.76562-64.3066 9.76562-58.4473Z"/>
  </g>
  <g id="Medium-S" transform="matrix(1 0 0 1 1704.61 696)">
   <path d="M9.76562-12.2559C9.76562-6.49414 13.3789-3.07617 19.2871-3.07617L64.6484-3.07617C70.5566-3.07617 74.1211-6.49414 74.1211-12.2559L74.1211-58.252C74.1211-63.9648 70.5566-67.4316 64.6484-67.4316L19.2871-67.4316C13.3789-67.4316 9.76562-63.9648 9.76562-58.252Z"/>
  </g>
  <g id="Regular-S" transform="matrix(1 0 0 1 1408.49 696)">
   <path d="M9.76562-12.5C9.76562-6.93359 13.1348-3.66211 18.7988-3.66211L63.916-3.66211C69.5801-3.66211 72.9492-6.93359 72.9492-12.5L72.9492-58.0078C72.9492-63.5742 69.5801-66.8457 63.916-66.8457L18.7988-66.8457C13.1348-66.8457 9.76562-63.5742 9.76562-58.0078Z"/>
  </g>
  <g id="Light-S" transform="matrix(1 0 0 1 1112.56 696)">
   <path d="M9.76562-12.5488C9.76562-7.42188 12.8418-4.44336 17.9688-4.44336L63.1836-4.44336C68.3105-4.44336 71.3867-7.42188 71.3867-12.5488L71.3867-57.959C71.3867-63.0859 68.3105-66.0645 63.1836-66.0645L17.9688-66.0645C12.8418-66.0645 9.76562-63.0859 9.76562-57.959Z"/>
  </g>
  <g id="Thin-S" transform="matrix(1 0 0 1 816.896 696)">
   <path d="M9.76562-12.5488C9.76562-8.10547 12.4023-5.46875 16.8945-5.46875L62.1582-5.46875C66.6504-5.46875 69.2871-8.10547 69.2871-12.5488L69.2871-57.959C69.2871-62.4023 66.6504-65.0391 62.1582-65.0391L16.8945-65.0391C12.4023-65.0391 9.76562-62.4023 9.76562-57.959Z"/>
  </g>
  <g id="Ultralight-S" transform="matrix(1 0 0 1 520.722 696)">
   <path d="M9.76562-12.5977C9.76562-8.44727 12.207-6.00586 16.3574-6.00586L61.6211-6.00586C65.7715-6.00586 68.2129-8.44727 68.2129-12.5977L68.2129-57.9102C68.2129-62.0605 65.7715-64.502 61.6211-64.502L16.3574-64.502C12.207-64.502 9.76562-62.0605 9.76562-57.9102Z"/>
  </g>
 </g>
</svg>
